<svg width="66" height="66" viewBox="0 0 66 66" fill="none" xmlns="http://www.w3.org/2000/svg">
<g clip-path="url(#clip0_406_1260)">
<path d="M3.27917 38.885V26.3496H32.9082" stroke="#F4B400" stroke-width="2" stroke-miterlimit="10" stroke-linejoin="round"/>
<path d="M5.55831 46.862H1L1.6753 38.885H4.96742L5.55831 46.862Z" stroke="#F4B400" stroke-width="2" stroke-miterlimit="10" stroke-linejoin="round"/>
<path d="M14.3788 38.6467V48.066C14.3788 54.0252 22.9024 58.9271 33.4599 58.9271C44.0174 58.9271 52.5409 54.0252 52.5409 48.066V38.6467" stroke="#F4B400" stroke-width="2" stroke-miterlimit="10" stroke-linejoin="round"/>
<path d="M33.5858 7.93497L64.8679 26.6872C64.9269 26.7226 64.926 26.8086 64.8661 26.8426L33.5858 44.6483C33.5577 44.6642 33.5232 44.6639 33.4954 44.6475L2.22215 26.1443C2.16289 26.1092 2.16335 26.0233 2.22298 25.9889L33.4945 7.93422C33.5228 7.91788 33.5578 7.91817 33.5858 7.93497Z" stroke="#F4B400" stroke-width="2"/>
</g>
<defs>
<clipPath id="clip0_406_1260">
<rect width="66" height="66" fill="white"/>
</clipPath>
</defs>
</svg>
