<svg width="66" height="66" viewBox="0 0 66 66" fill="none" xmlns="http://www.w3.org/2000/svg">
<path d="M61.0425 16.5924L33.2981 1.16647C32.9652 0.944511 32.5213 0.944511 32.1883 1.16647L4.44391 16.5924C4.22196 16.7033 4 17.1473 4 17.4802V48.332C4 48.7759 4.22196 49.1088 4.55489 49.3308L32.2993 64.7567C32.6322 64.9786 33.0762 64.9786 33.4091 64.7567L39.0303 61.6126C39.5328 61.3316 39.6948 60.6853 39.3843 60.2005L33.631 51.2174C33.4091 50.8845 32.9652 50.6625 32.6322 50.6625C26.0846 50.8845 19.7588 47.8881 16.0966 42.0063C12.4343 36.4574 12.4343 29.4658 15.2087 23.9169C15.5417 23.1401 16.5405 23.1401 16.9844 23.9169L24.5309 35.7915C24.7528 36.1244 25.0858 36.3464 25.5297 36.3464L33.4091 36.0135C33.853 36.0135 34.1859 35.7915 34.2969 35.4586L38.0702 28.467C38.2921 28.134 38.2921 27.6901 38.0702 27.3572L30.5237 15.3716C30.0798 14.7057 30.5237 13.8179 31.3005 13.7069C37.5153 13.596 43.73 16.5924 47.2813 22.2522C50.9436 28.134 50.9436 35.2366 47.8362 41.0075C47.6142 41.3404 47.6142 41.7843 47.8362 42.1172L54.0988 51.9731C54.3833 52.4209 54.968 52.5686 55.431 52.3096L61.1535 49.1088C61.4864 48.8869 61.7084 48.5539 61.7084 48.11V17.4802C61.7084 17.1473 61.4864 16.7033 61.0425 16.5924Z" stroke="#F4B400" stroke-width="2"/>
</svg>
