<svg width="66" height="66" viewBox="0 0 66 66" fill="none" xmlns="http://www.w3.org/2000/svg">
<g clip-path="url(#clip0_406_1257)">
<path d="M50.2749 0.0600586H54.6201C55.6804 0.0600586 56.6223 0.268325 57.4459 0.684859C58.2695 1.09193 58.9085 1.67413 59.3629 2.43146C59.8173 3.17933 60.0445 4.04553 60.0445 5.03006C60.0445 6.01459 59.8173 6.88553 59.3629 7.64286C58.9085 8.39073 58.2695 8.97293 57.4459 9.38946C56.6223 9.79653 55.6804 10.0001 54.6201 10.0001H50.2749V0.0600586ZM54.5349 8.43806C55.2638 8.43806 55.9028 8.30079 56.4519 8.02626C57.0104 7.74226 57.4364 7.34466 57.7299 6.83346C58.0328 6.31279 58.1843 5.71166 58.1843 5.03006C58.1843 4.34846 58.0328 3.75206 57.7299 3.24086C57.4364 2.72019 57.0104 2.32259 56.4519 2.04806C55.9028 1.76406 55.2638 1.62206 54.5349 1.62206H52.1209V8.43806H54.5349Z" fill="#F4B400"/>
<path d="M45.5317 4.16386C46.4499 4.27746 47.1505 4.58986 47.6333 5.10106C48.1161 5.61226 48.3575 6.25126 48.3575 7.01806C48.3575 7.59553 48.2107 8.12093 47.9173 8.59426C47.6238 9.06759 47.1789 9.44626 46.5825 9.73026C45.9955 10.0048 45.2761 10.1421 44.4241 10.1421C43.7141 10.1421 43.0277 10.0427 42.3651 9.84386C41.7119 9.63559 41.1533 9.35159 40.6895 8.99186L41.4847 7.55766C41.8444 7.86059 42.2799 8.10199 42.7911 8.28186C43.3117 8.45226 43.8466 8.53746 44.3957 8.53746C45.0489 8.53746 45.5601 8.40493 45.9293 8.13986C46.3079 7.86533 46.4973 7.49613 46.4973 7.03226C46.4973 6.56839 46.3174 6.20866 45.9577 5.95306C45.6074 5.68799 45.0678 5.55546 44.3389 5.55546H43.4301V4.29166L45.6879 1.60786H41.1723V0.0600586H47.9457V1.29546L45.5317 4.16386Z" fill="#F4B400"/>
<path d="M33.8105 -0.536377H35.5855V10H33.8105V-0.536377Z" fill="#F4B400"/>
<path d="M32.1055 6.25123C32.1055 6.3743 32.096 6.54943 32.0771 6.77663H26.1273C26.2314 7.33516 26.5012 7.7801 26.9367 8.11143C27.3816 8.4333 27.9307 8.59423 28.5839 8.59423C29.417 8.59423 30.1033 8.3197 30.6429 7.77063L31.5943 8.86403C31.2535 9.2711 30.8228 9.57876 30.3021 9.78703C29.7814 9.9953 29.1945 10.0994 28.5413 10.0994C27.7082 10.0994 26.9746 9.93376 26.3403 9.60243C25.706 9.2711 25.2138 8.81196 24.8635 8.22503C24.5227 7.62863 24.3523 6.9565 24.3523 6.20863C24.3523 5.47023 24.518 4.80756 24.8493 4.22063C25.1901 3.62423 25.6587 3.16036 26.2551 2.82903C26.8515 2.4977 27.5236 2.33203 28.2715 2.33203C29.0099 2.33203 29.6678 2.4977 30.2453 2.82903C30.8322 3.1509 31.2866 3.61003 31.6085 4.20643C31.9398 4.79336 32.1055 5.47496 32.1055 6.25123ZM28.2715 3.75203C27.7035 3.75203 27.2207 3.92243 26.8231 4.26323C26.435 4.59456 26.1983 5.0395 26.1131 5.59803H30.4157C30.34 5.04896 30.108 4.60403 29.7199 4.26323C29.3318 3.92243 28.849 3.75203 28.2715 3.75203Z" fill="#F4B400"/>
<path d="M23.2721 6.25123C23.2721 6.3743 23.2627 6.54943 23.2437 6.77663H17.2939C17.3981 7.33516 17.6679 7.7801 18.1033 8.11143C18.5483 8.4333 19.0973 8.59423 19.7505 8.59423C20.5836 8.59423 21.2699 8.3197 21.8095 7.77063L22.7609 8.86403C22.4201 9.2711 21.9894 9.57876 21.4687 9.78703C20.9481 9.9953 20.3611 10.0994 19.7079 10.0994C18.8749 10.0994 18.1412 9.93376 17.5069 9.60243C16.8727 9.2711 16.3804 8.81196 16.0301 8.22503C15.6893 7.62863 15.5189 6.9565 15.5189 6.20863C15.5189 5.47023 15.6846 4.80756 16.0159 4.22063C16.3567 3.62423 16.8253 3.16036 17.4217 2.82903C18.0181 2.4977 18.6903 2.33203 19.4381 2.33203C20.1765 2.33203 20.8345 2.4977 21.4119 2.82903C21.9989 3.1509 22.4533 3.61003 22.7751 4.20643C23.1065 4.79336 23.2721 5.47496 23.2721 6.25123ZM19.4381 3.75203C18.8701 3.75203 18.3873 3.92243 17.9897 4.26323C17.6016 4.59456 17.3649 5.0395 17.2797 5.59803H21.5823C21.5066 5.04896 21.2747 4.60403 20.8865 4.26323C20.4984 3.92243 20.0156 3.75203 19.4381 3.75203Z" fill="#F4B400"/>
<path d="M10.2668 0.0600586C11.1283 0.0600586 11.8762 0.202059 12.5104 0.486059C13.1542 0.770059 13.6464 1.17713 13.9872 1.70726C14.328 2.23739 14.4984 2.86693 14.4984 3.59586C14.4984 4.31533 14.328 4.94486 13.9872 5.48446C13.6464 6.01459 13.1542 6.42166 12.5104 6.70566C11.8762 6.98966 11.1283 7.13166 10.2668 7.13166H8.02325V10.0001H6.17725V0.0600586H10.2668ZM10.1816 5.56966C10.9863 5.56966 11.5969 5.39926 12.0134 5.05846C12.43 4.71766 12.6382 4.23013 12.6382 3.59586C12.6382 2.96159 12.43 2.47406 12.0134 2.13326C11.5969 1.79246 10.9863 1.62206 10.1816 1.62206H8.02325V5.56966H10.1816Z" fill="#F4B400"/>
<path d="M60.0449 5.03027C60.0449 4.1689 59.8703 3.39799 59.5225 2.71777L59.3633 2.43164C58.9089 1.67438 58.2698 1.09163 57.4463 0.68457C56.7255 0.320045 55.9137 0.11485 55.0117 0.0693359L54.6201 0.0595703V-0.0507812C55.6944 -0.0507762 56.6533 0.160097 57.4941 0.584961C58.3359 1.00101 58.9922 1.59782 59.458 2.37402L59.6211 2.66699C59.9778 3.36451 60.1553 4.1532 60.1553 5.03027C60.1552 5.90708 59.9784 6.69898 59.6221 7.40332L59.458 7.7002C58.9923 8.46669 58.337 9.06295 57.4961 9.48828H57.4951C56.6541 9.90397 55.6948 10.1103 54.6201 10.1104H50.1641V-0.0507812H54.6201V0.0595703H50.2744V10H54.6201L55.0117 9.99023C55.785 9.9521 56.4917 9.79951 57.1318 9.53223L57.4463 9.38965C58.1669 9.02516 58.7456 8.53321 59.1836 7.91504L59.3633 7.64258C59.7608 6.97991 59.9845 6.23017 60.0342 5.39355L60.0449 5.03027ZM58.0732 5.03027C58.0732 4.36558 57.9261 3.78858 57.6348 3.29688L57.6328 3.29492V3.29395C57.3509 2.79426 56.9421 2.41235 56.4033 2.14746L56.4014 2.14648C55.8707 1.872 55.2494 1.73246 54.5352 1.73242H52.2314V8.32715H54.5352V8.43848H52.1211V1.62207H54.5352C55.264 1.62211 55.9032 1.76389 56.4521 2.04785C57.0106 2.32238 57.4361 2.72059 57.7295 3.24121C58.0324 3.75238 58.1846 4.34873 58.1846 5.03027L58.1768 5.28223C58.1436 5.8608 57.9944 6.37757 57.7295 6.83301C57.4361 7.34416 57.0106 7.74237 56.4521 8.02637L56.2422 8.12305C55.7421 8.33327 55.173 8.43845 54.5352 8.43848V8.32715C55.1607 8.32712 55.7147 8.22418 56.1992 8.02051L56.4023 7.92676C56.9425 7.65192 57.3519 7.26935 57.6338 6.77832V6.77734C57.9256 6.27583 58.0732 5.69475 58.0732 5.03027Z" fill="#F4B400"/>
<path d="M48.3574 7.01758C48.3573 6.25097 48.1155 5.61169 47.6328 5.10059C47.15 4.58964 46.4493 4.27763 45.5312 4.16406L47.9453 1.29492V0.0595703H41.1719V1.60742H45.6875L43.4297 4.29199V5.55566H44.3389C45.0678 5.55567 45.6077 5.68806 45.958 5.95312C46.3175 6.20871 46.4971 6.56849 46.4971 7.03223L46.4883 7.20215C46.4468 7.58698 46.2607 7.89956 45.9297 8.13965L45.7842 8.2334C45.4301 8.43629 44.967 8.53711 44.3955 8.53711V8.42676C45.0351 8.42676 45.5205 8.29648 45.8643 8.0498L45.9873 7.95117C46.2548 7.71093 46.3867 7.40672 46.3867 7.03223C46.3867 6.60209 46.2223 6.27656 45.8936 6.04297L45.8906 6.04102C45.5686 5.79749 45.058 5.66602 44.3389 5.66602H43.3193V4.25098L43.3457 4.2207L45.4492 1.71875H41.0615V-0.0507812H48.0566V1.33594L48.0303 1.36719L45.7432 4.08398C46.5838 4.2187 47.2447 4.5278 47.7139 5.02441C48.2178 5.55804 48.4687 6.22546 48.4688 7.01758C48.4688 7.61475 48.3163 8.16088 48.0117 8.65234C47.7051 9.14687 47.2418 9.53867 46.6299 9.83008L46.6289 9.83105C46.0235 10.1141 45.2869 10.2529 44.4238 10.2529C43.7034 10.2529 43.0062 10.1522 42.333 9.9502L42.3311 9.94922C41.6677 9.73766 41.0967 9.44796 40.6211 9.0791L40.5469 9.02148L41.4531 7.38574L41.5557 7.47266C41.9037 7.76575 42.3277 8.00067 42.8281 8.17676C43.3371 8.34315 43.8587 8.42675 44.3955 8.42676V8.53711C43.9152 8.5371 43.4458 8.47218 42.9873 8.3418L42.791 8.28223C42.2798 8.10236 41.8441 7.86055 41.4844 7.55762L40.6895 8.99219C41.1533 9.35185 41.7121 9.63551 42.3652 9.84375C43.0278 10.0425 43.714 10.1416 44.4238 10.1416C45.1694 10.1416 45.8139 10.0374 46.3564 9.82715L46.582 9.73047C47.1784 9.44647 47.6235 9.06708 47.917 8.59375C48.2104 8.12047 48.3574 7.59496 48.3574 7.01758Z" fill="#F4B400"/>
<path d="M35.5859 -0.536133H33.8105V10H35.5859V-0.536133ZM35.6963 10.1104H33.6992V-0.647461H35.6963V10.1104Z" fill="#F4B400"/>
<path d="M24.2412 6.20898C24.2412 5.45336 24.4113 4.77113 24.7529 4.16602L24.8906 3.94141C25.2264 3.43408 25.6639 3.03096 26.2012 2.73242C26.8156 2.39109 27.5067 2.22071 28.2715 2.2207C29.0263 2.2207 29.7032 2.39017 30.2988 2.73145L30.5195 2.86328C31.0193 3.18484 31.4148 3.61501 31.7051 4.15234L31.8252 4.38379C32.0867 4.93462 32.2168 5.55775 32.2168 6.25098C32.2168 6.37868 32.2065 6.55798 32.1875 6.78613L32.1787 6.8877H26.2666C26.3814 7.35748 26.6251 7.73407 27.002 8.02148L27.165 8.12891C27.5574 8.36365 28.0288 8.4834 28.584 8.4834V8.59375L28.3438 8.58691C27.795 8.5517 27.3258 8.39294 26.9365 8.11133C26.5012 7.78001 26.2311 7.33483 26.127 6.77637H32.0771L32.0986 6.47461C32.1034 6.38715 32.1055 6.31245 32.1055 6.25098C32.1054 5.4748 31.9397 4.79293 31.6084 4.20605C31.3267 3.68428 30.9436 3.26766 30.459 2.95605L30.2451 2.8291C29.7399 2.53927 29.1733 2.37611 28.5449 2.33984L28.2715 2.33203C27.5236 2.33204 26.8513 2.49778 26.2549 2.8291L26.0371 2.95898C25.5432 3.27788 25.1478 3.69889 24.8496 4.2207C24.5183 4.80764 24.3525 5.47058 24.3525 6.20898L24.3604 6.48535C24.3976 7.12306 24.5652 7.70282 24.8633 8.22461C25.2135 8.81154 25.7066 9.27121 26.3408 9.60254C26.8956 9.89229 27.5265 10.0555 28.2334 10.0918L28.541 10.0996C29.1125 10.0996 29.6335 10.0197 30.1035 9.86035L30.3018 9.78711C30.8224 9.57884 31.2539 9.27132 31.5947 8.86426L30.6426 7.77051C30.103 8.31948 29.417 8.59374 28.584 8.59375V8.4834C29.3898 8.48339 30.0466 8.21907 30.5635 7.69336L30.6475 7.60742L31.6777 8.79102L31.7402 8.8623L31.6797 8.93555C31.3266 9.3573 30.8802 9.67499 30.3438 9.88965C29.808 10.1039 29.206 10.21 28.541 10.21C27.6931 10.2099 26.9415 10.041 26.2891 9.7002C25.6377 9.35992 25.1298 8.88737 24.7686 8.28223L24.7676 8.28027C24.4164 7.66576 24.2413 6.97423 24.2412 6.20898ZM28.2715 3.75195C28.849 3.75195 29.3316 3.92287 29.7197 4.26367C30.1077 4.6044 30.3402 5.04878 30.416 5.59766H26.1133C26.1879 5.10908 26.3781 4.70727 26.6846 4.39258L26.8232 4.26367C27.2208 3.92288 27.7035 3.75196 28.2715 3.75195ZM28.2715 3.86328C27.7275 3.86329 27.2712 4.02559 26.8955 4.34766C26.5594 4.63454 26.3434 5.01254 26.2471 5.4873H30.2832C30.1946 5.02095 29.9832 4.64233 29.6465 4.34668C29.281 4.02581 28.8254 3.86328 28.2715 3.86328Z" fill="#F4B400"/>
<path d="M15.4082 6.20898C15.4082 5.45342 15.5774 4.7711 15.9189 4.16602C16.2697 3.55217 16.7539 3.07366 17.3682 2.73242C17.9826 2.3911 18.6737 2.2207 19.4385 2.2207C20.193 2.22075 20.8695 2.39039 21.4648 2.73145C22.0703 3.06348 22.5402 3.53804 22.8721 4.15234L22.9922 4.38379C23.2536 4.93458 23.3828 5.55782 23.3828 6.25098C23.3828 6.37868 23.3735 6.55798 23.3545 6.78613L23.3457 6.8877H17.4326C17.5476 7.3581 17.7923 7.73489 18.1699 8.02246C18.5923 8.32751 19.1173 8.4834 19.751 8.4834V8.59375L19.5107 8.58691C18.9619 8.55175 18.4929 8.39297 18.1035 8.11133C17.668 7.77999 17.3981 7.3349 17.2939 6.77637H23.2441L23.2646 6.47461L23.2725 6.25098C23.2724 5.4748 23.1067 4.79293 22.7754 4.20605C22.4536 3.60979 21.9989 3.15093 21.4121 2.8291C20.9067 2.53914 20.3396 2.37605 19.7109 2.33984L19.4385 2.33203C18.6906 2.33203 18.0183 2.49779 17.4219 2.8291L17.2041 2.95898C16.7101 3.27791 16.3139 3.69877 16.0156 4.2207L15.8994 4.44434C15.6458 4.97445 15.5186 5.56292 15.5186 6.20898L15.5273 6.48535C15.5646 7.12312 15.7321 7.70279 16.0303 8.22461C16.3805 8.81154 16.8726 9.27121 17.5068 9.60254C18.0619 9.89248 18.6931 10.0556 19.4004 10.0918L19.708 10.0996C20.2796 10.0996 20.8004 10.0198 21.2705 9.86035L21.4688 9.78711C21.9893 9.57889 22.42 9.2712 22.7607 8.86426L21.8096 7.77051C21.2701 8.31948 20.5838 8.59365 19.751 8.59375V8.4834C20.5567 8.4833 21.2137 8.21912 21.7305 7.69336L21.8145 7.60742L22.8447 8.79102L22.9062 8.8623L22.8457 8.93555C22.4925 9.35728 22.0463 9.67503 21.5098 9.88965C20.9741 10.1039 20.373 10.21 19.708 10.21C18.8601 10.21 18.1085 10.041 17.4561 9.7002C16.8046 9.35986 16.2958 8.88754 15.9346 8.28223L15.9336 8.28027C15.5824 7.66576 15.4083 6.97423 15.4082 6.20898ZM19.6504 3.75977C20.1349 3.79706 20.5471 3.9655 20.8867 4.26367C21.2746 4.60435 21.5063 5.04892 21.582 5.59766H17.2793C17.3539 5.10894 17.545 4.70732 17.8516 4.39258L17.9893 4.26367C18.3869 3.92287 18.8705 3.75195 19.4385 3.75195L19.6504 3.75977ZM19.4385 3.86328C18.8945 3.86328 18.4373 4.02558 18.0615 4.34766C17.7256 4.63451 17.5104 5.01265 17.4141 5.4873H21.4502C21.3616 5.02098 21.1501 4.64233 20.8135 4.34668C20.4481 4.02583 19.9923 3.86335 19.4385 3.86328Z" fill="#F4B400"/>
<path d="M14.498 3.5957C14.498 2.95816 14.3681 2.3966 14.1074 1.91113L13.9873 1.70703C13.6466 1.17704 13.1543 0.770306 12.5107 0.486328C11.8765 0.202328 11.1281 0.0595703 10.2666 0.0595703V-0.0507812C11.14 -0.0507812 11.9042 0.093071 12.5557 0.384766H12.5547C13.2159 0.676473 13.7262 1.09698 14.0801 1.64746C14.4341 2.19811 14.6094 2.84896 14.6094 3.5957C14.6094 4.33338 14.4344 4.98445 14.0811 5.54395H14.0801C13.7262 6.09442 13.2159 6.51395 12.5547 6.80566L12.5557 6.80664C11.9042 7.09836 11.14 7.24219 10.2666 7.24219H8.13379V10.1104H6.06641V-0.0507812H10.2666V0.0595703H6.17676V10H8.02344V7.13184H10.2666L10.585 7.125C11.3137 7.0939 11.9559 6.95451 12.5107 6.70605C13.0739 6.45757 13.5212 6.11461 13.8525 5.67773L13.9873 5.48438C14.3281 4.94479 14.498 4.31515 14.498 3.5957ZM12.5273 3.5957C12.5273 2.98812 12.3294 2.53463 11.9434 2.21875C11.5544 1.9005 10.9729 1.73242 10.1816 1.73242H8.13379V5.45898H10.1816V5.56934H8.02344V1.62207H10.1816C10.9863 1.62207 11.5971 1.79204 12.0137 2.13281C12.4302 2.4736 12.6387 2.96148 12.6387 3.5957L12.6289 3.82715C12.5833 4.34985 12.378 4.76046 12.0137 5.05859L11.8477 5.17773C11.4408 5.43861 10.8856 5.56933 10.1816 5.56934V5.45898C10.9729 5.45898 11.5544 5.29093 11.9434 4.97266C12.3294 4.65676 12.5273 4.2033 12.5273 3.5957Z" fill="#F4B400"/>
<circle cx="32.9348" cy="39.9348" r="24.8646" stroke="#F4B400" stroke-width="2.14032"/>
<path d="M27.0311 15.6208L21.3408 24.8222L27.0311 27.4225L35.4684 24.8222L45.2793 30.823L43.1209 39.6243L47.6339 45.8252L57.2485 44.625M52.3857 54.523L43.9058 51.626L40.1776 57.2268L41.3549 62.6276M24.6765 33.2234L19.9673 37.424L24.6765 47.0254V53.0262L28.6008 57.2268L38.4117 44.625L31.3479 34.4236L24.6765 33.2234Z" stroke="#F4B400" stroke-width="2.14032"/>
</g>
<defs>
<clipPath id="clip0_406_1257">
<rect width="66" height="66" fill="white"/>
</clipPath>
</defs>
</svg>
