<svg width="66" height="66" viewBox="0 0 66 66" fill="none" xmlns="http://www.w3.org/2000/svg">
<path d="M58 27.6286V21.6857L54.813 20.9429C54.2818 18.0952 52.9539 15.4952 51.3604 13.2667L52.9539 10.6667L48.439 6.45714L45.6504 7.94286C43.1274 6.33334 40.3387 5.34286 37.2845 4.84762L36.4878 2H30.1138L29.3171 4.97143C26.2629 5.46667 23.4743 6.70476 21.084 8.19048L18.2954 6.70476L13.7805 10.9143L15.374 13.5143C13.6477 15.8667 12.5854 18.4667 12.0542 21.3143L9 22.0571V28" stroke="#F4B400" stroke-width="2"/>
<path d="M15 29L33 19L51 29" stroke="#F4B400" stroke-width="2"/>
<path d="M29.6937 31H25.239V37.8131H29.6937V31Z" stroke="#F4B400" stroke-width="2"/>
<path d="M40.6995 31H36.2448V37.8131H40.6995V31Z" stroke="#F4B400" stroke-width="2"/>
<path d="M18.0347 59V28C18.0347 19.7157 24.7505 13 33.0347 13H34.0347" stroke="#F4B400" stroke-width="2"/>
<path d="M48 59L48 27C48 19.268 41.732 13 34 13" stroke="#F4B400" stroke-width="2"/>
<path d="M1.5 63.4852L18.5 59.0001L48 59L65 63.4852" stroke="#F4B400" stroke-width="2"/>
<path d="M25.239 58.5V45.3169" stroke="#F4B400" stroke-width="2"/>
<path d="M32.9692 58.5V45.3169" stroke="#F4B400" stroke-width="2"/>
<path d="M40.8304 58.5V45.3169" stroke="#F4B400" stroke-width="2"/>
<path d="M23.0115 45.3169H42.9268" stroke="#F4B400" stroke-width="2"/>
<path d="M30.7418 51.873H35.1966" stroke="#F4B400" stroke-width="2"/>
<path d="M47.2229 34.0164H64.9385L64.9384 65H1L1 34.0164H18" stroke="#F4B400" stroke-width="2"/>
<path d="M58.4547 42.7458H54V49.559H58.4547V42.7458Z" stroke="#F4B400" stroke-width="2"/>
<path d="M7 49.4645H11.4547V42.6514H7V49.4645Z" stroke="#F4B400" stroke-width="2"/>
</svg>
