<svg width="66" height="66" viewBox="0 0 66 66" fill="none" xmlns="http://www.w3.org/2000/svg">
<path d="M59.6696 15.7647L58.1744 15.187C55.3752 14.1055 52.4002 13.5508 49.3993 13.5508H48.7415C45.5706 13.5508 43 16.1214 43 19.2923C43 21.8036 44.632 24.0235 47.029 24.7725L56.2348 27.6493C58.8981 28.4816 60.7114 30.9481 60.7114 33.7384C60.7114 37.2617 57.8552 40.1179 54.3319 40.1179H53.6441C51.0789 40.1179 48.5299 39.7118 46.0916 38.9147L43 37.904" stroke="#F4B400" stroke-width="2"/>
<path d="M51.8558 9L51.8558 45.1608" stroke="#F4B400" stroke-width="2"/>
<path d="M25.659 7.93273C25.2827 7.43104 24.9065 7.05477 24.5302 6.55308C21.52 3.41751 18.1336 0.658217 12.9913 1.03449C9.47948 1.28533 7.3473 3.41751 6.34392 5.29885C6.09307 5.67512 5.84223 6.17681 5.84223 6.6785M5.03796 56.4667C5.03796 58.6 6.34392 60.6102 7.3473 61.8644C8.97779 63.8712 11.4862 65 14.1201 65H14.4964C18.6353 65 22.6488 62.9932 25.1573 59.7322L31.6793 51.2035C33.4352 48.8205 34.1877 45.8103 33.686 42.9256L29.4217 20.0987" stroke="#F4B400" stroke-width="2"/>
<path d="M20.7667 50.4508L25.2819 45.3085C26.1599 44.4306 26.4107 43.0509 26.1599 41.9221C25.5328 39.5391 24.404 35.1493 23.6514 31.1358C22.5226 25.1155 22.1464 21.7291 22.1464 21.7291L22.0209 21.3528C21.7701 20.4748 20.6413 20.4748 20.5159 21.3528C20.3904 21.4782 20.3904 21.7291 20.3904 21.9799V49.4475V50.2C20.3904 50.4508 20.6413 50.5763 20.7667 50.4508Z" stroke="#F4B400" stroke-width="2"/>
<path d="M26.1593 7.43091H25.783C25.783 7.43091 25.6576 8.55971 25.6576 9.18682C25.6576 9.68851 25.783 10.3156 25.9084 10.8173L28.166 18.3427C28.2915 18.9698 28.6677 19.3461 29.1694 19.8477C29.922 20.8511 31.1762 20.4749 31.427 19.7223C31.5525 19.4715 31.5525 19.0952 31.427 18.8444L28.0406 8.81056C27.6644 7.9326 27.0372 7.43091 26.1593 7.43091Z" stroke="#F4B400" stroke-width="2"/>
<path d="M11.11 56.5529C10.0474 57.0551 7.53796 58 5.18976 56.9284C4.88616 56.5518 5.03794 55.674 5.03794 55.1718C5.03794 54.6696 5.18974 54.293 5.18974 53.6653C5.18974 52.7864 5.79695 10.0999 5.79695 10.0999L5.49335 8.21672C5.49335 8.21672 5.49335 7.96563 5.64515 7.46343C5.94875 6.58459 6.40416 6.3335 7.31497 6.3335C7.92218 6.3335 8.52938 6.45904 8.98479 6.58459C10.5028 6.96124 12.0208 7.84008 12.628 8.71892C13.2352 9.59776 13.2352 12.3598 13.387 21.2738C13.9943 38.0972 12.9316 48.8944 12.628 54.4185C12.4762 55.4229 11.8149 56.2197 11.11 56.5529Z" stroke="#F4B400" stroke-width="2"/>
<path d="M13.023 32.4247C13.023 35.4384 13.2842 38 11.6227 38C10.1457 38 9.03796 35.589 9.03796 32.5753C9.03796 29.5616 9.96107 27 11.438 27C12.915 27 13.023 29.2603 13.023 32.4247Z" stroke="#F4B400" stroke-width="2"/>
<path d="M5.41669 45.1305C7.29169 44.7796 8.33335 45.2474 8.33335 45.2474C9.21877 45.656 10 46.5935 10 47.531L10.0365 51C10.0365 52.5 9.40092 53.1688 9.00006 53.5C8.5992 53.8312 7.00006 54.5 5.41673 54" stroke="#F4B400" stroke-width="2" stroke-linecap="round"/>
<path d="M6.00006 18.8721C7.62351 19.2161 8.52542 18.7574 8.52542 18.7574C9.29205 18.3569 9.96849 17.4377 9.96849 16.5185L10.0001 13.1173C10.0001 11.6466 9.44976 10.991 9.10268 10.6662C8.7556 10.3414 7.37101 9.68575 6.0001 10.176" stroke="#F4B400" stroke-width="2" stroke-linecap="round"/>
<path d="M5.58984 23.6104C9.58053 23.6104 13.5712 25.2408 13.5712 27.2476C13.5712 29.1289 13.5712 36.671 13.5712 37.7998C13.5712 39.5557 9.91309 41.0441 5.9224 41.0441" stroke="#F4B400" stroke-width="2" stroke-linecap="round"/>
</svg>
