<svg width="21" height="21" viewBox="0 0 21 21" fill="none" xmlns="http://www.w3.org/2000/svg">
<path fill-rule="evenodd" clip-rule="evenodd" d="M3.9375 17.7188C3.76345 17.7188 3.59653 17.6496 3.47346 17.5265C3.35039 17.4035 3.28125 17.2365 3.28125 17.0625V3.9375C3.28125 3.76345 3.35039 3.59653 3.47346 3.47346C3.59653 3.35039 3.76345 3.28125 3.9375 3.28125H16.0781C16.3392 3.28125 16.5896 3.17754 16.7742 2.99293C16.9588 2.80833 17.0625 2.55795 17.0625 2.29688C17.0625 2.0358 16.9588 1.78542 16.7742 1.60082C16.5896 1.41621 16.3392 1.3125 16.0781 1.3125H3.9375C3.24131 1.3125 2.57363 1.58906 2.08134 2.08134C1.58906 2.57363 1.3125 3.24131 1.3125 3.9375V17.0625C1.3125 17.7587 1.58906 18.4264 2.08134 18.9187C2.57363 19.4109 3.24131 19.6875 3.9375 19.6875H17.0625C17.7587 19.6875 18.4264 19.4109 18.9187 18.9187C19.4109 18.4264 19.6875 17.7587 19.6875 17.0625V12.7969C19.6875 12.5358 19.5838 12.2854 19.3992 12.1008C19.2146 11.9162 18.9642 11.8125 18.7031 11.8125C18.4421 11.8125 18.1917 11.9162 18.0071 12.1008C17.8225 12.2854 17.7188 12.5358 17.7188 12.7969V17.0625C17.7188 17.2365 17.6496 17.4035 17.5265 17.5265C17.4035 17.6496 17.2365 17.7188 17.0625 17.7188H3.9375ZM20.7113 6.1425C20.8851 5.95589 20.9798 5.70908 20.9753 5.45406C20.9708 5.19904 20.8675 4.95573 20.6871 4.77537C20.5068 4.59502 20.2635 4.49171 20.0084 4.48721C19.7534 4.48271 19.5066 4.57737 19.32 4.75125L12.0251 12.0448L9.56681 9.50381C9.47712 9.41009 9.36979 9.33503 9.25099 9.28293C9.13219 9.23083 9.00426 9.20272 8.87457 9.20023C8.74487 9.19773 8.61596 9.2209 8.49524 9.26839C8.37453 9.31589 8.26439 9.38677 8.17116 9.47697C8.07793 9.56717 8.00345 9.67491 7.952 9.79399C7.90055 9.91308 7.87314 10.0412 7.87136 10.1709C7.86957 10.3006 7.89344 10.4294 7.94159 10.5498C7.98974 10.6703 8.06123 10.78 8.15194 10.8728L11.3059 14.133C11.3966 14.2271 11.5052 14.3022 11.6253 14.3539C11.7454 14.4056 11.8746 14.4329 12.0053 14.4341C12.136 14.4353 12.2657 14.4105 12.3868 14.361C12.5078 14.3116 12.6178 14.2385 12.7102 14.1461L20.7113 6.1425Z" fill="#00AC14"/>
</svg>
