<svg width="60" height="60" viewBox="0 0 60 60" fill="none" xmlns="http://www.w3.org/2000/svg">
<path fill-rule="evenodd" clip-rule="evenodd" d="M30.3767 1.64954C46.0259 1.64954 58.6956 14.3192 58.6956 29.9684C58.6956 45.6176 46.0259 58.2873 30.3767 58.2873C14.7275 58.2873 2.05783 45.6176 2.05783 29.9684C2.05783 14.3192 14.7275 1.64954 30.3767 1.64954ZM42.6706 30.8274C43.2343 30.4784 43.2343 29.4584 42.6706 29.1094L24.2566 17.8624C22.8071 16.9766 22.4045 17.943 22.4045 18.453V41.457C22.4045 41.967 22.8071 42.9334 24.2566 42.0476L42.6706 30.8274ZM30.3767 5.13907C16.6602 5.13907 5.54736 16.2519 5.54736 29.9684C5.54736 43.6849 16.6602 54.7978 30.3767 54.7978C44.0932 54.7978 55.2061 43.6849 55.2061 29.9684C55.2061 16.2519 44.0932 5.13907 30.3767 5.13907Z" fill="#F4B400"/>
</svg>
