<svg width="66" height="66" viewBox="0 0 66 66" fill="none" xmlns="http://www.w3.org/2000/svg">
<g clip-path="url(#clip0_406_2666)">
<path d="M51 42.8169V22.3296L33 12.0732L15 22.3296V42.8169L33 53.0732L51 42.8169Z" stroke="#F4B400" stroke-width="2" stroke-linecap="round" stroke-linejoin="round"/>
<path d="M33 53.0732V33.4394L15 23.0732" stroke="#F4B400" stroke-width="2" stroke-linecap="round" stroke-linejoin="round"/>
<path d="M50.216 22.9998L33 32.9395" stroke="#F4B400" stroke-width="2" stroke-linecap="round" stroke-linejoin="round"/>
<path d="M14.827 52.092L7.35838 52.2813L6.81228 59.0912" stroke="#F4B400" stroke-width="2" stroke-linecap="round" stroke-linejoin="round"/>
<path d="M48.7465 10.5132L56.1274 11.0225L57.0418 3.99993" stroke="#F4B400" stroke-width="2" stroke-linecap="round" stroke-linejoin="round"/>
<path d="M55.9473 10.697C50.1329 4.71578 42.0004 1 33 1C15.3269 1 1 15.3269 1 33C1 36.9253 1.70677 40.6856 3 44.1605M62.4213 20.3939C64.081 24.2624 65 28.5239 65 33C65 50.6731 50.6731 65 33 65C22.6661 65 13.4763 60.1016 7.62576 52.5" stroke="#F4B400" stroke-width="2" stroke-linecap="round"/>
</g>
<defs>
<clipPath id="clip0_406_2666">
<rect width="66" height="66" fill="white"/>
</clipPath>
</defs>
</svg>
