<svg width="66" height="66" viewBox="0 0 66 66" fill="none" xmlns="http://www.w3.org/2000/svg">
<path d="M52.1566 18.1937H24.2247V16.7923C24.2215 15.7768 23.8167 14.8037 23.0986 14.0856C22.3805 13.3675 21.4074 12.9626 20.3918 12.9595H4.83285C3.81729 12.9626 2.84422 13.3675 2.1261 14.0856C1.40799 14.8037 1.00316 15.7768 1 16.7923V57.3487C1 58.416 1.42401 59.4397 2.17875 60.1944C2.93349 60.9491 3.95713 61.3731 5.02449 61.3731H52.1566C53.2239 61.3731 54.2476 60.9491 55.0023 60.1944C55.757 59.4397 56.1811 58.416 56.1811 57.3487V22.2062C56.1779 21.1409 55.7525 20.1204 54.9981 19.3682C54.2437 18.6161 53.2219 18.1937 52.1566 18.1937Z" stroke="#F4B400" stroke-width="2" stroke-linecap="round" stroke-linejoin="round"/>
<path d="M60.9478 52.4137C61.4764 52.4137 61.9997 52.3096 62.488 52.1073C62.9762 51.9051 63.4199 51.6086 63.7936 51.2349C64.1673 50.8612 64.4637 50.4176 64.666 49.9293C64.8682 49.441 64.9723 48.9177 64.9723 48.3892V13.2467C64.9723 12.1794 64.5483 11.1557 63.7936 10.401C63.0389 9.64626 62.0152 9.22226 60.9478 9.22226H33.004V7.83285C33.0008 6.81729 32.596 5.84422 31.8779 5.12611C31.1598 4.40799 30.1867 4.00316 29.1711 4H13.6002C12.5846 4.00316 11.6116 4.40799 10.8934 5.12611C10.1753 5.84422 9.77049 6.81729 9.76733 7.83285" stroke="#F4B400" stroke-width="2" stroke-linecap="round" stroke-linejoin="round"/>
<path d="M56.1563 57.2047C57.2237 57.2047 58.2474 56.7807 59.0021 56.0259C59.7568 55.2712 60.1808 54.2476 60.1808 53.1802V18.0497C60.1808 16.9824 59.7568 15.9587 59.0021 15.204C58.2474 14.4493 57.2237 14.0252 56.1563 14.0252H28.2125V12.6239C28.2093 11.6083 27.8045 10.6352 27.0864 9.91712C26.3683 9.199 25.3952 8.79417 24.3796 8.79102H8.80868C7.79312 8.79417 6.82005 9.199 6.10194 9.91712C5.38382 10.6352 4.97899 11.6083 4.97583 12.6239" stroke="#F4B400" stroke-width="2" stroke-linecap="round" stroke-linejoin="round"/>
<path d="M15.6716 45.9458V51.0004C15.6748 51.4981 15.8739 51.9746 16.2259 52.3266C16.5779 52.6786 17.0544 52.8777 17.5521 52.8809H39.6629C40.1606 52.8777 40.6371 52.6786 40.9891 52.3266C41.3411 51.9746 41.5402 51.4981 41.5434 51.0004V45.9458" stroke="#F4B400" stroke-width="2" stroke-linecap="round" stroke-linejoin="round"/>
<path d="M32.9091 37.3458V28.8537C32.9091 28.3422 32.7059 27.8518 32.3443 27.4901C31.9826 27.1285 31.4921 26.9253 30.9807 26.9253H26.1896C25.6782 26.9253 25.1877 27.1285 24.826 27.4901C24.4644 27.8518 24.2612 28.3422 24.2612 28.8537V37.3339H18.5239L23.5665 41.6338L28.6091 45.9338L33.6517 41.6338L38.6943 37.3339L32.9091 37.3458Z" stroke="#F4B400" stroke-width="2" stroke-linecap="round" stroke-linejoin="round"/>
</svg>
