<svg width="66" height="66" viewBox="0 0 66 66" fill="none" xmlns="http://www.w3.org/2000/svg">
<g clip-path="url(#clip0_406_2667)">
<path d="M8.38183 36.4337C7.64424 35.5938 6.60319 35.0812 5.4877 35.0089C4.37222 34.9365 3.27367 35.3102 2.43372 36.0478C1.59377 36.7854 1.08123 37.8264 1.00885 38.9419C0.936473 40.0574 1.31018 41.1559 2.04777 41.9959L19.0748 61.4294L25.4089 55.8786L8.38183 36.4337Z" stroke="#F4B400" stroke-width="2" stroke-linecap="round" stroke-linejoin="round"/>
<path d="M22.2412 58.6483L25.4083 55.8672L26.5548 60.3623L27.6899 64.8688L23.3877 63.1434L19.0742 61.4294L22.2412 58.6483Z" stroke="#F4B400" stroke-width="2" stroke-linecap="round" stroke-linejoin="round"/>
<path d="M14.3282 43.2217L7.99414 48.7725" stroke="#F4B400" stroke-width="2" stroke-linecap="round" stroke-linejoin="round"/>
<path d="M10.3555 38.7041L4.02148 44.2549" stroke="#F4B400" stroke-width="2" stroke-linecap="round" stroke-linejoin="round"/>
<path d="M60 15.9609H63.8897C64.4419 15.9609 64.8897 16.4087 64.8897 16.9609V49.4998H54.5V59.4139H27" stroke="#F4B400" stroke-width="2" stroke-linecap="round" stroke-linejoin="round"/>
<path d="M5 34.4998V16.9609C5 16.4087 5.44772 15.9609 6 15.9609H37.2422" stroke="#F4B400" stroke-width="2" stroke-linecap="round" stroke-linejoin="round"/>
<path d="M17 59.414H5.75781V46.5" stroke="#F4B400" stroke-width="2" stroke-linecap="round" stroke-linejoin="round"/>
<path d="M64.5 50L55 59" stroke="#F4B400" stroke-width="2" stroke-linecap="round" stroke-linejoin="round"/>
<path d="M53 33.7627V49H22M31.8487 26H17L17 44.2955" stroke="#F4B400" stroke-width="2" stroke-linecap="round" stroke-linejoin="round" stroke-dasharray="0.93 3.73"/>
<path d="M60.0424 26.0648L55.7437 24.6111C54.7368 25.4625 53.587 26.1287 52.3475 26.5787L51.4577 31.0778H45.5424L44.6526 26.6288C43.4228 26.1662 42.2791 25.5012 41.2688 24.6612L36.9576 26.0648L34 21.0519L37.4088 18.0441C37.1771 16.7468 37.1771 15.4187 37.4088 14.1214L34 11.0259L36.9576 6.01297L41.2563 7.46672C42.2632 6.61526 43.413 5.94908 44.6526 5.49914L45.5424 1H51.4577L52.3475 5.44901C53.5772 5.91159 54.7209 6.57663 55.7312 7.4166L60.0424 6.01297L63 11.0259L59.5912 14.0337C59.8229 15.331 59.8229 16.6591 59.5912 17.9564L63 21.0519L60.0424 26.0648Z" stroke="#F4B400" stroke-width="2" stroke-linejoin="round"/>
<path d="M48.5001 9.77412C47.6721 9.75483 46.8489 9.90369 46.0801 10.2117C45.3114 10.5197 44.613 10.9804 44.0274 11.566C43.4418 12.1516 42.9811 12.8499 42.6731 13.6187C42.3651 14.3875 42.2163 15.2107 42.2355 16.0387C42.2163 16.8666 42.3651 17.6899 42.6731 18.4586C42.9811 19.2274 43.4418 19.9257 44.0274 20.5113C44.613 21.0969 45.3114 21.5577 46.0801 21.8656C46.8489 22.1736 47.6721 22.3225 48.5001 22.3032C49.328 22.3225 50.1513 22.1736 50.9201 21.8656C51.6888 21.5577 52.3871 21.0969 52.9727 20.5113C53.5583 19.9257 54.0191 19.2274 54.3271 18.4586C54.6351 17.6899 54.7839 16.8666 54.7646 16.0387C54.7839 15.2107 54.6351 14.3875 54.3271 13.6187C54.0191 12.8499 53.5583 12.1516 52.9727 11.566C52.3871 10.9804 51.6888 10.5197 50.9201 10.2117C50.1513 9.90369 49.328 9.75483 48.5001 9.77412Z" stroke="#F4B400" stroke-width="2"/>
</g>
<defs>
<clipPath id="clip0_406_2667">
<rect width="66" height="66" fill="white"/>
</clipPath>
</defs>
</svg>
