<svg width="66" height="66" viewBox="0 0 66 66" fill="none" xmlns="http://www.w3.org/2000/svg">
<path d="M43.4598 28.2972V16.3141L33.084 10.3276L22.7083 16.3141V28.2972L33.084 34.2836L43.4598 28.2972Z" stroke="#F4B400" stroke-width="2" stroke-linecap="round" stroke-linejoin="round"/>
<path d="M33.084 34.2835V22.3004L22.7083 16.314" stroke="#F4B400" stroke-width="2" stroke-linecap="round" stroke-linejoin="round"/>
<path d="M43.4607 16.314L33.085 22.3004" stroke="#F4B400" stroke-width="2" stroke-linecap="round" stroke-linejoin="round"/>
<path d="M50.8582 27.3701L47.0768 28.2562L45.9434 31.9758" stroke="#F4B400" stroke-width="2" stroke-linecap="round" stroke-linejoin="round"/>
<path d="M25.4496 49.9654C25.4496 50.5939 25.3774 51.1812 25.3259 51.7582C25.192 53.3656 25.0374 54.9729 24.9035 56.5803C24.8947 56.8456 24.808 57.1025 24.654 57.3187C24.5001 57.535 24.2858 57.701 24.038 57.7961C23.2858 58.1362 22.5645 58.5483 21.8227 58.9192C21.5754 59.0429 21.4414 59.1871 21.493 59.4653C21.5445 59.7435 21.3178 60.3102 21.7712 60.5884H44.6143C44.7278 60.4701 44.814 60.3283 44.8669 60.1731C44.9197 60.0179 44.938 59.853 44.9203 59.69C44.9026 59.527 44.8495 59.3698 44.7646 59.2296C44.6797 59.0893 44.5651 58.9693 44.4289 58.878C43.6252 58.4659 42.8215 58.064 42.0281 57.621C41.9407 57.5735 41.8637 57.5088 41.8017 57.431C41.7398 57.3531 41.6941 57.2635 41.6675 57.1676C41.4923 56.0754 41.3275 54.9833 41.2141 53.8808C41.0802 52.6031 41.0184 51.3152 40.9153 49.9551" stroke="#F4B400" stroke-width="2" stroke-linecap="round" stroke-linejoin="round"/>
<rect x="1" y="7" width="64" height="42" rx="1" stroke="#F4B400" stroke-width="2"/>
<path d="M1 44.9634L65 44.9634" stroke="#F4B400" stroke-width="2" stroke-linecap="round" stroke-linejoin="round"/>
<path d="M47.211 28.3281C47.7953 28.8085 48.2723 29.406 48.6113 30.0822C48.9503 30.7584 49.1437 31.4982 49.179 32.2538C49.179 36.7461 42.0489 40.3936 33.2393 40.3936C24.4297 40.3936 17.2996 36.7461 17.2996 32.2538C17.3518 31.3982 17.5967 30.5655 18.016 29.8179C18.4352 29.0703 19.0181 28.4272 19.7209 27.9365" stroke="#F4B400" stroke-width="2" stroke-linecap="round" stroke-linejoin="round"/>
</svg>
