<svg width="66" height="66" viewBox="0 0 66 66" fill="none" xmlns="http://www.w3.org/2000/svg">
<g clip-path="url(#clip0_406_2670)">
<path d="M57.5824 28.7784V18.9577L33.1711 4.92822L8.75977 18.9577V28.7784" stroke="#F4B400" stroke-width="2"/>
<path d="M8.75977 32.9873V47.0168L33.1711 61.0463L57.5824 47.0168V32.9873" stroke="#F4B400" stroke-width="2"/>
<path d="M46.0779 28.7781V25.6916L33.1708 18.1157L20.2637 25.6916V28.7781" stroke="#F4B400" stroke-width="2"/>
<path d="M20.2639 40.2832L18.5803 39.4414L33.171 47.8591L47.7617 39.4414L46.0781 40.2832" stroke="#F4B400" stroke-width="2" stroke-linecap="round"/>
<path d="M8.75977 18.9585L20.264 25.6927" stroke="#F4B400" stroke-width="2"/>
<path d="M37.6604 32.9873L47.7616 38.8797" stroke="#F4B400" stroke-width="2" stroke-linecap="round"/>
<path d="M57.5823 18.9585L46.0781 25.6927" stroke="#F4B400" stroke-width="2"/>
<path d="M28.401 32.9873L18.5803 38.5991" stroke="#F4B400" stroke-width="2"/>
<path d="M43.2724 36.3545L28.4011 45.0528" stroke="#F4B400" stroke-width="2"/>
<path d="M38.5022 33.5493L23.3503 42.2476" stroke="#F4B400" stroke-width="2"/>
<path d="M33.1709 47.8584V61.0461" stroke="#F4B400" stroke-width="2"/>
<path d="M33.1709 18.1157V28.7781" stroke="#F4B400" stroke-width="2"/>
<path d="M0.342041 32.9873H66.0001" stroke="#F4B400" stroke-width="2"/>
<path d="M1.18384 14.7489V1H14.9327" stroke="#F4B400" stroke-width="2"/>
<path d="M51.4094 1H65.1583V14.7489" stroke="#F4B400" stroke-width="2"/>
<path d="M65.1583 51.2256V64.9745H51.4094" stroke="#F4B400" stroke-width="2"/>
<path d="M14.9327 64.9745H1.18384V51.2256" stroke="#F4B400" stroke-width="2"/>
<path d="M57.5825 33.5493V46.737" stroke="#F4B400" stroke-width="2"/>
<path d="M52.8125 32.9873V49.5421" stroke="#F4B400" stroke-width="2"/>
<path d="M47.762 32.9873V52.6286" stroke="#F4B400" stroke-width="2"/>
<path d="M42.9917 42.2466V55.7149" stroke="#F4B400" stroke-width="2"/>
<path d="M37.9412 45.0527V58.2405" stroke="#F4B400" stroke-width="2"/>
<path d="M33.1711 47.8584V61.0461" stroke="#F4B400" stroke-width="2"/>
<path d="M8.75977 33.8301V47.2984" stroke="#F4B400" stroke-width="2"/>
<path d="M13.5298 33.2686V49.8234" stroke="#F4B400" stroke-width="2"/>
<path d="M18.5803 32.9873V52.6286" stroke="#F4B400" stroke-width="2"/>
<path d="M23.3503 42.2466V55.7149" stroke="#F4B400" stroke-width="2"/>
<path d="M28.4011 45.0527V58.2405" stroke="#F4B400" stroke-width="2"/>
<path d="M33.1709 48.1392V60.7657" stroke="#F4B400" stroke-width="2"/>
</g>
<defs>
<clipPath id="clip0_406_2670">
<rect width="66" height="66" fill="white"/>
</clipPath>
</defs>
</svg>
