<svg width="66" height="66" viewBox="0 0 66 66" fill="none" xmlns="http://www.w3.org/2000/svg">
<g clip-path="url(#clip0_406_2545)">
<path d="M65.2578 59.376C65.7915 59.2336 66.1086 58.6856 65.9662 58.1519L63.6456 49.4563C63.5032 48.9227 62.9551 48.6055 62.4215 48.7479C61.8879 48.8903 61.5708 49.4384 61.7132 49.972L63.776 57.7015L56.0465 59.7642C55.5129 59.9066 55.1957 60.4547 55.3381 60.9883C55.4805 61.5219 56.0286 61.839 56.5622 61.6966L65.2578 59.376ZM33.0388 39.9141L32.5379 40.7796L64.4991 59.2753L65 58.4098L65.5009 57.5443L33.5397 39.0485L33.0388 39.9141Z" fill="#090908"/>
<path d="M0.0342942 58.1509C-0.108669 58.6844 0.207889 59.2327 0.741352 59.3757L9.43459 61.7054C9.96805 61.8484 10.5164 61.5318 10.6594 60.9984C10.8023 60.4649 10.4858 59.9166 9.9523 59.7736L2.22499 57.7027L4.29586 49.9754C4.43882 49.442 4.12226 48.8936 3.5888 48.7506C3.05534 48.6077 2.50699 48.9242 2.36403 49.4577L0.0342942 58.1509ZM33.0388 39.9141L32.5389 39.048L0.500248 57.5437L1.00021 58.4098L1.50017 59.2758L33.5388 40.7801L33.0388 39.9141Z" fill="#090908"/>
<path d="M33.7459 2.29315C33.3554 1.90263 32.7222 1.90263 32.3317 2.29315L25.9678 8.65711C25.5772 9.04764 25.5772 9.6808 25.9678 10.0713C26.3583 10.4619 26.9914 10.4619 27.382 10.0713L33.0388 4.41447L38.6957 10.0713C39.0862 10.4619 39.7194 10.4619 40.1099 10.0713C40.5004 9.6808 40.5004 9.04764 40.1099 8.65711L33.7459 2.29315ZM33.0388 3.00026L32.0388 3.00026L32.0388 39.9143L33.0388 39.9143L34.0388 39.9143L34.0388 3.00026L33.0388 3.00026Z" fill="#090908"/>
<path d="M65.4004 24.9563V32.7581C53.6306 34.1038 44.148 43.2278 41.9639 54.7727C41.9523 54.8339 41.9463 54.896 41.9463 54.9583C41.9463 55.31 41.8896 55.6062 41.8115 55.9963C41.7708 56.1999 41.7252 56.4308 41.6904 56.6887L35.2002 58.8518L10.0078 52.0354C10.3629 35.6161 22.1497 21.3605 37.6855 18.0266L65.4004 24.9563Z" stroke="#090908" stroke-width="2" stroke-linejoin="round"/>
<circle cx="32.6183" cy="39.6182" r="2.38076" transform="rotate(60 32.6183 39.6182)" fill="white" stroke="#090908" stroke-width="2"/>
</g>
<defs>
<clipPath id="clip0_406_2545">
<rect width="66" height="66" fill="white"/>
</clipPath>
</defs>
</svg>
