<svg width="66" height="66" viewBox="0 0 66 66" fill="none" xmlns="http://www.w3.org/2000/svg">
<g clip-path="url(#clip0_406_2535)">
<path d="M57.5498 29L64.7043 30.7842H65V39.9281C53.7634 40.8129 44.5968 49.3669 42.5269 60.2806C42.5269 61.1655 42.2312 61.7554 42.2312 62.6403L35.1344 65L10 58.2158C10 55.5789 10.3014 52.9945 10.8718 50.5" stroke="#090908" stroke-width="2" stroke-linejoin="round"/>
<path d="M58.0918 20.0977H58.4004V29.6641C46.6735 30.5899 37.1065 39.5398 34.9463 50.958C34.9463 51.8838 34.6377 52.501 34.6377 53.4268L27.2314 55.8955L1 48.7979C1 42.1662 2.81879 35.8533 5.9834 30.3984C9.01888 33.0272 12.9779 34.618 17.3086 34.6182C26.8681 34.6182 34.6182 26.8681 34.6182 17.3086C34.6181 16.2323 34.5181 15.1792 34.3301 14.1572L58.0918 20.0977Z" fill="#090908"/>
<circle cx="17.3091" cy="17.3091" r="16.3091" stroke="#090908" stroke-width="2" stroke-linecap="round"/>
<path d="M8.35035 17.6495L25.6594 17.6495" stroke="#090908" stroke-width="2" stroke-linecap="round"/>
<path d="M17 26.3091V9" stroke="#090908" stroke-width="2" stroke-linecap="round"/>
</g>
<defs>
<clipPath id="clip0_406_2535">
<rect width="66" height="66" fill="white"/>
</clipPath>
</defs>
</svg>
