<svg width="66" height="66" viewBox="0 0 66 66" fill="none" xmlns="http://www.w3.org/2000/svg">
<g clip-path="url(#clip0_406_2562)">
<path d="M39.5 10H63C64.1046 10 65 10.8954 65 12V59.1163C65 61.8135 62.8135 64 60.1163 64C57.4191 64 55.2326 61.8135 55.2326 59.1163V42.2085C55.2326 39.8709 53.3376 37.9759 51 37.9759C48.6624 37.9759 46.7674 39.8709 46.7674 42.2085V46.1042C46.7674 48.8014 44.5809 50.9879 41.8837 50.9879C39.1865 50.9879 37 48.8014 37 46.1042V37.9759" stroke="#090908" stroke-width="2"/>
<rect x="31.5818" y="1.97913" width="26.5959" height="18.1972" rx="1" transform="rotate(45 31.5818 1.97913)" stroke="black" stroke-width="2"/>
<rect x="16.7349" y="12.8674" width="32.1951" height="11.1983" rx="1" transform="rotate(45 16.7349 12.8674)" stroke="black" stroke-width="2"/>
<path d="M19.2094 31.1791L7.071 39.1318C5.59909 40.0962 4.23019 41.2093 2.9859 42.4535L2.63024 42.8092C0.580296 44.8592 0.580293 48.1828 2.63023 50.2327C4.68017 52.2826 8.00378 52.2826 10.0537 50.2327L10.4094 49.877C11.6537 48.6328 12.7668 47.2639 13.7311 45.7919L21.6839 33.6536" stroke="#090908" stroke-width="2"/>
</g>
<defs>
<clipPath id="clip0_406_2562">
<rect width="66" height="66" fill="white"/>
</clipPath>
</defs>
</svg>
