<svg width="66" height="66" viewBox="0 0 66 66" fill="none" xmlns="http://www.w3.org/2000/svg">
<g clip-path="url(#clip0_406_2578)">
<path d="M33.0457 0.830975L61.8306 13.5205C61.9034 13.5526 61.9123 13.6318 61.8463 13.6594L33.0405 25.7178C33.0126 25.7295 32.9773 25.7285 32.9465 25.7151L4.16988 13.1941C4.09686 13.1623 4.08734 13.0831 4.15319 13.0551L32.9507 0.828132C32.9788 0.816189 33.0146 0.817259 33.0457 0.830975Z" stroke="#090908" stroke-width="2"/>
<path d="M26.3543 22.9624L4.15319 32.3886C4.08734 32.4165 4.09686 32.4958 4.16988 32.5276L32.9465 45.0486C32.9773 45.062 33.0126 45.063 33.0405 45.0513L61.8463 32.9929C61.9123 32.9653 61.9034 32.8861 61.8306 32.854L39.3925 22.9624" stroke="#090908" stroke-width="2"/>
<path d="M26.3543 42.2954L4.15319 51.7216C4.08734 51.7496 4.09686 51.8288 4.16988 51.8606L32.9465 64.3816C32.9773 64.395 33.0126 64.396 33.0405 64.3843L61.8463 52.3259C61.9123 52.2983 61.9034 52.2191 61.8306 52.187L39.3925 42.2954" stroke="#090908" stroke-width="2"/>
</g>
<defs>
<clipPath id="clip0_406_2578">
<rect width="66" height="66" fill="white"/>
</clipPath>
</defs>
</svg>
