<svg width="66" height="66" viewBox="0 0 66 66" fill="none" xmlns="http://www.w3.org/2000/svg">
<g clip-path="url(#clip0_406_2528)">
<path d="M66.043 17.4854H66.4004V28.5518C52.8348 29.6227 41.7675 39.976 39.2686 53.1846C39.2684 54.2552 38.9121 54.9693 38.9121 56.04L30.3438 58.8955L0 50.6855C2.39299e-05 34.5101 9.34913 19.9712 22.9404 12.9297C21.3638 14.2292 20.1056 15.808 19.1973 17.5508C9.22081 24.6271 2.52212 36.2756 2.03027 49.1621L30.2832 56.8076L37.0645 54.5469C37.0867 54.4286 37.109 54.3192 37.1289 54.2197C37.2199 53.7647 37.2685 53.4976 37.2686 53.1846C37.2686 53.0599 37.2806 52.935 37.3037 52.8125C39.8503 39.3518 50.7541 28.6523 64.4004 26.7588V19.1357L43.0156 13.7891C41.4247 12.2254 39.5271 11.0628 37.4805 10.3438L66.043 17.4854Z" fill="#090908"/>
<circle cx="32.5" cy="24.5" r="14.007" transform="rotate(60 32.5 24.5)" fill="#090908" stroke="#090908" stroke-width="2"/>
</g>
<defs>
<clipPath id="clip0_406_2528">
<rect width="66" height="66" fill="white"/>
</clipPath>
</defs>
</svg>
