<svg width="66" height="66" viewBox="0 0 66 66" fill="none" xmlns="http://www.w3.org/2000/svg">
<path d="M43.4062 46.2502V46.1484C43.3762 46.1831 43.3438 46.2178 43.3137 46.2502H43.4062Z" fill="#9D9D9D"/>
<path d="M37 11.3179C33.5941 9.77572 27.0463 9 21.5478 9C12.9043 9 4 10.8018 4 13.6358V44.2905C4 46.0923 7.66667 47.381 9.76235 47.8972C11.9777 48.4912 14.6574 48.7802 17.4444 49" stroke="#090908" stroke-width="2" stroke-linecap="round"/>
<path d="M35 65C44.3888 65 52 57.6127 52 48.5C52 39.3873 44.3888 32 35 32C25.6112 32 18 39.3873 18 48.5C18 57.6127 25.6112 65 35 65Z" stroke="#090908" stroke-width="2"/>
<path d="M52.3333 48C60.4189 46.9452 64.7284 44.8325 65 43.2487C65 42.9858 65 42.7197 64.7317 42.4568L43.7078 1L27 33.4768" stroke="#090908" stroke-width="2" stroke-linecap="round" stroke-linejoin="round"/>
</svg>
