<svg width="66" height="66" viewBox="0 0 66 66" fill="none" xmlns="http://www.w3.org/2000/svg">
<g clip-path="url(#clip0_406_2583)">
<path d="M65.2964 15.0352L65.3795 24.4124C51.6883 26.534 40.9705 37.3444 38.7934 50.9304L38.7778 51.0247L38.7809 51.1203C38.7949 51.5531 38.7536 51.9381 38.7029 52.395C38.675 52.6464 38.6452 52.9212 38.627 53.2192L31.1068 55.983L1.11272 48.9998C0.854416 29.8043 14.2299 12.5006 32.4209 8.11189L65.2964 15.0352Z" stroke="#090908" stroke-width="2"/>
<path d="M64.2574 15.3528C40.569 18.688 29.7974 37.5386 30.378 55.5084" stroke="#090908" stroke-width="2"/>
<path d="M46.5443 16.2053C32.7461 23.1621 26.0849 36.3166 25.0785 49.2694L7.33717 45.1068C8.67639 30.5974 18.6002 17.7476 31.7825 13.3241L46.5443 16.2053Z" fill="#090908" stroke="#090908" stroke-width="2"/>
</g>
<defs>
<clipPath id="clip0_406_2583">
<rect width="66" height="66" fill="white"/>
</clipPath>
</defs>
</svg>
