<svg width="66" height="66" viewBox="0 0 66 66" fill="none" xmlns="http://www.w3.org/2000/svg">
<g clip-path="url(#clip0_406_2588)">
<path d="M16.6433 34V63.0725C16.6433 64.177 17.5387 65.0725 18.6433 65.0725H61.2447C62.3492 65.0725 63.2447 64.177 63.2447 63.0725V23.1313L44.6041 4.49072H28" stroke="#090908" stroke-width="2" stroke-linecap="round" stroke-linejoin="round"/>
<path d="M63.2448 23.797H44.5V4.49072" stroke="#090908" stroke-width="2" stroke-linecap="round" stroke-linejoin="round"/>
<circle cx="17.3091" cy="17.3091" r="16.3091" stroke="#090908" stroke-width="2" stroke-linecap="round"/>
<path d="M17.3091 27.2949V9.98584" stroke="#090908" stroke-width="2" stroke-linecap="round"/>
<path d="M26.6294 18.6406L17.3091 9.32031L7.98881 18.6406" stroke="#090908" stroke-width="2" stroke-linecap="round"/>
<path d="M17.3091 39H63.2447" stroke="#090908" stroke-width="2" stroke-linecap="round"/>
<path d="M17.3091 57.418H63.2447" stroke="#090908" stroke-width="2" stroke-linecap="round"/>
<path d="M46.0393 43.2151H50.9387C52.1097 43.2151 53.1419 43.4411 54.0355 43.893C54.9394 44.3347 55.6379 44.9612 56.1309 45.7726C56.6342 46.5841 56.8858 47.529 56.8858 48.6075C56.8858 49.686 56.6342 50.631 56.1309 51.4424C55.6379 52.2538 54.9394 52.8855 54.0355 53.3375C53.1419 53.7791 52.1097 54 50.9387 54H46.0393V43.2151ZM50.8155 51.9508C51.894 51.9508 52.7516 51.653 53.3884 51.0572C54.0355 50.4512 54.3591 49.6347 54.3591 48.6075C54.3591 47.5804 54.0355 46.769 53.3884 46.1732C52.7516 45.5672 51.894 45.2642 50.8155 45.2642H48.5352V51.9508H50.8155Z" fill="#090908"/>
<path d="M41.346 51.6889H36.3387L35.3835 54H32.8259L37.6329 43.2151H40.098L44.9204 54H42.3012L41.346 51.6889ZM40.5602 49.7939L38.8501 45.6648L37.1399 49.7939H40.5602Z" fill="#090908"/>
<path d="M28.3158 54.1849C27.2168 54.1849 26.2205 53.9487 25.3269 53.4762C24.4435 52.9935 23.7451 52.331 23.2315 51.4887C22.7282 50.6362 22.4766 49.6758 22.4766 48.6076C22.4766 47.5394 22.7282 46.5841 23.2315 45.7419C23.7451 44.8894 24.4435 44.2269 25.3269 43.7544C26.2205 43.2716 27.2219 43.0303 28.3312 43.0303C29.2659 43.0303 30.1082 43.1946 30.858 43.5233C31.618 43.852 32.2549 44.3245 32.7684 44.9407L31.1661 46.4198C30.4368 45.5776 29.533 45.1564 28.4545 45.1564C27.7868 45.1564 27.1911 45.3054 26.6673 45.6032C26.1434 45.8908 25.7326 46.2966 25.4347 46.8204C25.1471 47.3442 25.0033 47.94 25.0033 48.6076C25.0033 49.2752 25.1471 49.871 25.4347 50.3948C25.7326 50.9186 26.1434 51.3295 26.6673 51.6274C27.1911 51.915 27.7868 52.0588 28.4545 52.0588C29.533 52.0588 30.4368 51.6325 31.1661 50.78L32.7684 52.2591C32.2549 52.8856 31.618 53.3632 30.858 53.6919C30.0979 54.0206 29.2505 54.1849 28.3158 54.1849Z" fill="#090908"/>
</g>
<defs>
<clipPath id="clip0_406_2588">
<rect width="66" height="66" fill="white"/>
</clipPath>
</defs>
</svg>
