<svg width="170" height="54" viewBox="0 0 170 54" fill="none" xmlns="http://www.w3.org/2000/svg">
<path d="M163.922 33.3142C167.279 33.3142 170 30.5965 170 27.2442C170 23.8918 167.279 21.1742 163.922 21.1742C160.565 21.1742 157.844 23.8918 157.844 27.2442C157.844 30.5965 160.565 33.3142 163.922 33.3142Z" fill="#D24D27"/>
<path d="M105.471 34.3251C104.869 33.4265 104.554 32.3669 104.567 31.2859C104.567 29.9061 104.928 28.8019 105.628 28.0029C106.329 27.2039 107.538 26.6126 109.153 26.2502C110.768 25.8877 113.039 25.7012 115.815 25.7012H117.355V24.7199C117.355 23.3656 117.046 22.3695 116.439 21.7528C115.832 21.136 114.807 20.8393 113.398 20.8393C112.555 20.8465 111.715 20.9402 110.891 21.1191C109.917 21.3324 108.969 21.6545 108.067 22.0792C107.481 22.3483 106.993 22.3822 106.615 22.1809C106.425 22.0815 106.258 21.9434 106.124 21.7755C105.991 21.6076 105.894 21.4136 105.841 21.206C105.705 20.7498 105.731 20.2611 105.915 19.822C106.018 19.5811 106.172 19.3651 106.366 19.1886C106.56 19.012 106.79 18.879 107.04 18.7983C107.659 18.5419 108.27 18.3257 108.871 18.1434C107.699 17.5306 106.625 16.7446 105.688 15.8121L97.7763 7.91088C95.2653 5.40283 92.2842 3.41334 89.0033 2.05597C85.7224 0.698614 82.2058 0 78.6546 0C75.1033 0 71.5867 0.698614 68.3058 2.05597C65.0249 3.41334 62.0438 5.40283 59.5328 7.91088L52.0098 15.4221C50.2701 17.1654 48.0565 18.3606 45.6433 18.8598C46.0818 19.173 46.4846 19.5333 46.8444 19.9343C48.3639 21.6299 49.1342 23.9612 49.1342 26.9114C49.1342 27.5939 48.835 28.4077 47.4047 28.4077H35.3083C35.6373 32.0574 37.6639 33.9182 41.3332 33.9182C42.1432 33.9087 42.9496 33.8092 43.7376 33.6215C44.5974 33.4208 45.415 33.0699 46.1526 32.5851C46.7383 32.2502 47.2604 32.1336 47.7039 32.2311C47.9158 32.273 48.1153 32.3625 48.2874 32.4929C48.4595 32.6232 48.5996 32.791 48.6971 32.9835C48.9003 33.3831 48.9399 33.846 48.8074 34.2743C48.6651 34.7326 48.3643 35.1256 47.9586 35.3827C49.0719 35.9253 50.0873 36.6487 50.9635 37.5233L59.5413 46.09C64.6128 51.1547 71.491 54 78.663 54C85.8351 54 92.7133 51.1547 97.7848 46.09L105.696 38.1867C106.364 37.522 107.101 36.9302 107.895 36.4212C106.92 35.9419 106.086 35.22 105.471 34.3251ZM69.5855 36.2919C69.3478 36.8882 68.7713 37.1856 67.8559 37.1842C67.3336 37.2063 66.8165 37.0728 66.3704 36.8006C65.9448 36.4984 65.6043 36.0918 65.3815 35.6201L62.7437 30.7645C62.5296 30.3142 62.1721 29.9475 61.7271 29.7218C61.276 29.5299 60.7891 29.4367 60.2989 29.4484H58.2107V34.9906C58.2107 35.6858 58.0325 36.2248 57.6759 36.6077C57.3194 36.9935 56.7931 37.1842 56.097 37.1842C55.401 37.1842 54.8704 36.9935 54.5033 36.6077C54.1362 36.222 53.9537 35.6858 53.9537 34.9906V19.7648C53.9537 18.3193 54.6773 17.5966 56.1246 17.5966H62.7946C64.9549 17.5966 66.6215 18.118 67.7944 19.1607C68.9672 20.2035 69.553 21.6574 69.5515 23.5225C69.5515 24.9679 69.1809 26.1689 68.4395 27.1255C67.6982 28.082 66.6371 28.7362 65.2563 29.0881C66.2268 29.3805 67.0233 30.087 67.6458 31.2075L69.3436 34.3633C69.7411 35.0556 69.8218 35.6985 69.5855 36.2919ZM101.418 19.875L96.1677 35.4845C96.0105 35.9798 95.7162 36.4206 95.3188 36.7561C94.9099 37.056 94.41 37.2057 93.9034 37.18C93.4012 37.2068 92.9055 37.0568 92.5027 36.7561C92.1098 36.4047 91.8169 35.9557 91.6539 35.4548L87.643 24.0969L83.5918 35.4845C83.421 35.9732 83.1289 36.4107 82.7429 36.7561C82.3456 37.0581 81.8534 37.2084 81.355 37.18C80.8402 37.2078 80.3315 37.0581 79.9141 36.7561C79.5129 36.4086 79.2136 35.9588 79.0482 35.4548L73.8532 19.8729C73.5957 19.1777 73.6417 18.5828 73.9911 18.0883C74.337 17.5945 74.9333 17.3486 75.7758 17.3486C76.264 17.318 76.7469 17.4639 77.1362 17.7598C77.5064 18.1129 77.7765 18.5574 77.9192 19.0484L81.6394 30.5632L85.6948 19.076C85.841 18.5788 86.1163 18.1291 86.4928 17.7725C86.8563 17.4781 87.3155 17.3273 87.783 17.3486C88.2345 17.3272 88.6771 17.4788 89.0203 17.7725C89.3861 18.1479 89.6586 18.6038 89.8161 19.1035L93.7781 30.684L97.6341 19.0505C97.7688 18.5644 98.0345 18.1245 98.4023 17.7789C98.7844 17.4791 99.2626 17.3285 99.7478 17.355C100.462 17.355 100.984 17.6015 101.314 18.0947C101.644 18.5878 101.678 19.1812 101.418 19.875Z" fill="white"/>
<path d="M62.0286 20.9177H58.2087V26.3752H62.0286C64.3163 26.3752 65.4602 25.461 65.4602 23.6327C65.4602 21.8043 64.3163 20.8994 62.0286 20.9177Z" fill="white"/>
<path d="M31.1448 27.3735C31.1099 25.5674 31.5226 23.7808 32.3459 22.1724C33.106 20.708 34.2617 19.4855 35.682 18.6436C36.2556 18.3056 36.8667 18.0353 37.5028 17.8382C36.249 17.2245 35.1053 16.4081 34.1179 15.4221L32.3226 13.6291C28.7715 10.0831 23.9555 8.09109 18.9339 8.09109C13.9122 8.09109 9.09626 10.0831 5.54515 13.6291C1.99462 17.1756 0 21.9853 0 27.0004C0 32.0155 1.99462 36.8253 5.54515 40.3718C9.09626 43.9177 13.9122 45.9098 18.9339 45.9098C23.9555 45.9098 28.7715 43.9177 32.3226 40.3718L35.1726 37.5254C35.5869 37.1124 36.0325 36.7319 36.5054 36.3873C35.5256 35.9683 34.6314 35.3727 33.8675 34.6303C32.0616 32.8648 31.1448 30.4233 31.1448 27.3735ZM26.8453 36.6989C26.5248 37.0189 26.0516 37.1779 25.4298 37.1779C24.982 37.1986 24.5382 37.0842 24.1565 36.8493C23.7683 36.5696 23.4124 36.2476 23.0954 35.8892L15.6827 28.111H15.6275V34.997C15.6275 35.6921 15.4493 36.2312 15.0928 36.6141C14.7362 36.9998 14.2078 37.1906 13.5139 37.1906C12.8199 37.1906 12.2851 36.9998 11.9201 36.6141C11.5551 36.2284 11.3705 35.6921 11.3705 34.997V19.5253C11.3705 18.8322 11.553 18.296 11.9201 17.9209C12.2873 17.5457 12.8178 17.3592 13.5139 17.3592C14.9286 17.3592 15.636 18.0812 15.636 19.5253V26.0276H15.6827L22.9893 18.3977C23.2691 18.0923 23.5993 17.8371 23.9655 17.6432C24.3279 17.4638 24.7283 17.3744 25.1327 17.3825C25.7538 17.3825 26.2115 17.5471 26.5057 17.8764C26.6483 18.0327 26.7562 18.2174 26.8224 18.4183C26.8886 18.6191 26.9116 18.8317 26.8898 19.042C26.8442 19.509 26.6291 19.9432 26.285 20.2628L19.8273 26.8394L26.667 34.109C27.0448 34.4808 27.2715 34.979 27.3037 35.5078C27.3154 35.7283 27.2806 35.9488 27.2016 36.155C27.1227 36.3613 27.0013 36.5487 26.8453 36.7052V36.6989Z" fill="white"/>
<path d="M44.1428 21.8778C43.3322 20.958 42.182 20.4917 40.724 20.4917C39.16 20.4917 37.9037 20.9792 36.9912 21.9414C36.1083 22.8697 35.5502 24.1159 35.3274 25.6461H45.4777C45.378 24.0375 44.9302 22.7701 44.1428 21.8778Z" fill="white"/>
<path d="M146.686 15.8184C145.215 14.3489 143.468 13.1832 141.545 12.3879C139.623 11.5926 137.563 11.1833 135.482 11.1833C133.401 11.1833 131.341 11.5926 129.418 12.3879C127.496 13.1832 125.749 14.3489 124.278 15.8184C122.87 17.2285 121.158 18.2978 119.272 18.9446C119.442 19.0718 119.605 19.2083 119.76 19.3536C120.453 20.0312 120.97 20.868 121.264 21.7909C121.624 22.9313 121.795 24.1224 121.772 25.3176V36.2368C122.683 36.7857 123.525 37.4433 124.278 38.1952C125.749 39.6647 127.496 40.8304 129.418 41.6257C131.341 42.421 133.401 42.8303 135.482 42.8303C137.563 42.8303 139.623 42.421 141.545 41.6257C143.468 40.8304 145.215 39.6647 146.686 38.1952C149.656 35.2275 151.325 31.203 151.325 27.0068C151.325 22.8106 149.656 18.7861 146.686 15.8184ZM144.194 35.2153C144.222 35.7367 144.056 36.2499 143.728 36.6565C143.569 36.8352 143.372 36.976 143.152 37.0684C142.931 37.1609 142.693 37.2026 142.454 37.1906C142.026 37.2114 141.601 37.1068 141.232 36.8896C140.861 36.6205 140.532 36.2968 140.258 35.9295L131.357 24.5992V35.1326C131.357 36.5032 130.698 37.1892 129.38 37.1906C128.061 37.192 127.402 36.506 127.402 35.1326V19.4956C127.402 18.8033 127.572 18.2734 127.911 17.906C128.085 17.7223 128.296 17.5782 128.53 17.4835C128.765 17.3887 129.017 17.3456 129.269 17.3571C129.666 17.335 130.059 17.4356 130.396 17.6454C130.75 17.9156 131.064 18.2337 131.33 18.5906L140.23 29.921V19.3875C140.23 18.0339 140.889 17.3571 142.208 17.3571C143.527 17.3571 144.186 18.0339 144.186 19.3875L144.194 35.2153Z" fill="white"/>
<path d="M110.637 28.8274C109.614 29.2343 109.094 29.9803 109.094 31.0464C109.081 31.4687 109.161 31.8887 109.327 32.2773C109.493 32.6659 109.741 33.0139 110.055 33.2972C110.692 33.8737 111.577 34.1683 112.693 34.1683C113.316 34.1825 113.936 34.0659 114.511 33.826C115.086 33.5861 115.605 33.2284 116.033 32.7758C116.916 31.8539 117.364 30.6734 117.364 29.2661V28.2424H115.863C113.374 28.2424 111.615 28.4395 110.637 28.8274Z" fill="white"/>
</svg>
