<svg xmlns="http://www.w3.org/2000/svg" width="148" height="49" fill="none" viewBox="0 0 148 49"><path fill="#D24D27" d="M141.55 29.68a5.08 5.08 0 0 0 5.1-5.04 5.08 5.08 0 0 0-5.1-5.04 5.08 5.08 0 0 0-5.12 5.04 5.08 5.08 0 0 0 5.12 5.04Z"/><path fill="#090908" d="M92.44 30.54c-.5-.74-.75-1.6-.75-2.52 0-1.14.32-2.06.9-2.74a5.23 5.23 0 0 1 2.97-1.44c1.37-.3 3.27-.46 5.61-.46h1.31v-.83c0-1.14-.25-1.97-.78-2.46-.5-.49-1.37-.77-2.56-.77a10.72 10.72 0 0 0-4.48 1.05c-.5.21-.9.24-1.22.09a1.3 1.3 0 0 1-.66-.8 1.6 1.6 0 0 1 1-2c.63-.24 1.25-.46 1.84-.64-.93-.5-1.84-1.14-2.62-1.94l-6.76-6.66a23.35 23.35 0 0 0-32.7 0l-6.43 6.33a10.93 10.93 0 0 1-5.36 2.88c.15.13.3.22.46.34.13.1.25.22.38.34l.25.25c.65.7 1.12 1.53 1.43 2.51.03.13.1.25.13.37.25.9.37 1.85.37 2.92 0 .28-.06.55-.25.8-.22.28-.6.46-1.21.46H33.1a5.9 5.9 0 0 0 .81 2.64c.34.56.81.99 1.37 1.3l.4.18c.41.18.88.3 1.41.37l.53.06c.19 0 .38.03.56.03.63 0 1.31-.1 2.03-.25A6.82 6.82 0 0 0 42.4 29c.03 0 .03-.03.06-.03.03-.03.07-.03.13-.06.03 0 .03 0 .06-.03s.1-.03.13-.03h.03c.06-.03.09-.03.15-.03H43c.04 0 .07 0 .13-.03h.34c.03 0 .1 0 .13.03.25.06.43.15.59.3l.1.1c.05.06.09.15.15.21.15.34.19.68.1 1.08 0 .06-.04.09-.07.15-.03.1-.1.18-.16.28-.15.21-.37.43-.65.58-.03.03-.06.03-.1.06a8.97 8.97 0 0 1 2.62 1.84l7.33 7.22a23.35 23.35 0 0 0 32.7 0l7.46-7.34c.34-.34.68-.61 1.06-.89l-.16-.06a5.56 5.56 0 0 1-2.12-1.81Zm-30.27 1.62c-.19.5-.69.74-1.47.74-.5 0-.93-.09-1.24-.3a3 3 0 0 1-.85-.99l-2.21-4.05a1.9 1.9 0 0 0-.84-.86 2.96 2.96 0 0 0-1.22-.22H52.6v4.61c0 .58-.16 1.01-.44 1.35-.31.3-.75.5-1.34.5-.6 0-1.03-.16-1.34-.5-.31-.3-.47-.77-.47-1.35V18.4c0-1.2.62-1.81 1.84-1.81h5.64c1.81 0 3.25.43 4.21 1.29 1 .86 1.5 2.09 1.5 3.62 0 1.2-.31 2.22-.94 3.02a4.67 4.67 0 0 1-2.68 1.62c.81.25 1.5.83 2.03 1.75l1.43 2.62c.28.64.35 1.16.13 1.65ZM89 18.5l-4.43 13c-.15.46-.4.83-.71 1.07-.31.25-.69.37-1.19.37s-.87-.12-1.18-.37a2.62 2.62 0 0 1-.72-1.07l-3.37-9.46-3.43 9.46c-.18.46-.43.83-.71 1.07-.28.25-.69.37-1.19.37s-.9-.12-1.21-.37a2.35 2.35 0 0 1-.72-1.07l-4.37-13c-.21-.58-.18-1.07.13-1.47.28-.4.81-.61 1.5-.61.5 0 .87.12 1.15.33.28.22.5.59.65 1.08l3.12 9.58 3.43-9.55c.16-.5.4-.86.69-1.08.28-.24.65-.36 1.09-.36.44 0 .78.12 1.03.36.25.25.5.62.68 1.11l3.34 9.65 3.24-9.71c.16-.46.38-.83.66-1.08.28-.24.65-.37 1.12-.37.6 0 1.03.22 1.3.62.29.43.32.95.1 1.5Z"/><path fill="#090908" d="M55.8 19.38h-3.2v4.55h3.2c1.94 0 2.9-.77 2.9-2.27 0-1.54-.96-2.28-2.9-2.28ZM40.78 20.46c-.06-.1-.16-.21-.25-.3l-.28-.28a3.8 3.8 0 0 0-2.62-.9c-.65 0-1.25.1-1.78.31-.53.22-1 .5-1.37.9a5.44 5.44 0 0 0-1.4 3.07h8.57a5.23 5.23 0 0 0-.87-2.8ZM128.05 15.05a13.7 13.7 0 0 0-19.18 0 11.37 11.37 0 0 1-4.68 2.77c.1.09.2.15.29.24.56.53 1 1.2 1.27 2.03.28.83.44 1.81.44 2.95v8.26c0 .16 0 .31-.03.43.72.43 1.4.96 2.06 1.57l.68.68a13.7 13.7 0 0 0 19.18 0 13.28 13.28 0 0 0-.03-18.93Zm-2.78 16.22c0 .5-.12.9-.4 1.2-.25.3-.63.43-1.06.43-.44 0-.78-.09-1.03-.24a3.27 3.27 0 0 1-.81-.8l-7.52-9.43v8.75c0 1.14-.56 1.72-1.65 1.72-1.1 0-1.65-.58-1.65-1.72v-13c0-.58.15-1 .43-1.31.28-.31.66-.46 1.16-.46.4 0 .72.09.93.24.22.15.5.43.78.8l7.52 9.43V18.1c0-1.13.56-1.68 1.65-1.68 1.12 0 1.68.55 1.68 1.68v13.18h-.03ZM96.8 25.96c-.87.34-1.3.95-1.3 1.84 0 .77.28 1.38.8 1.88.54.49 1.29.73 2.22.73 1.12 0 2.06-.4 2.8-1.16a4.03 4.03 0 0 0 1.13-2.92v-.86h-1.28c-2.06 0-3.55.15-4.36.49Z"/><path fill="#090908" d="M31.86 30.78c-1.52-1.47-2.3-3.5-2.3-6.05 0-1.63.34-3.07 1-4.33a7.58 7.58 0 0 1 3.74-3.41l.5-.19a11.84 11.84 0 0 1-3.06-2.12l-1.5-1.47a16.33 16.33 0 0 0-22.88 0 15.76 15.76 0 0 0 0 22.55 16.33 16.33 0 0 0 22.88 0l2.43-2.4c.44-.43.9-.8 1.4-1.13-.4-.19-.77-.37-1.12-.62a6.8 6.8 0 0 1-1.09-.83Zm-5.92 1.72c-.28.28-.66.4-1.19.4-.43 0-.8-.09-1.09-.27-.28-.19-.56-.47-.9-.8l-6.24-6.49h-.03v5.75c0 .58-.15 1.01-.43 1.35-.32.3-.75.5-1.34.5-.6 0-1.03-.16-1.34-.5-.32-.3-.47-.77-.47-1.35V18.22c0-.59.15-1.02.47-1.32.3-.31.74-.46 1.34-.46 1.18 0 1.77.61 1.77 1.8v5.42h.03l6.18-6.36c.25-.28.53-.5.8-.62.29-.15.63-.21 1-.21.54 0 .91.12 1.16.4.25.27.34.58.31.98-.03.37-.19.7-.5 1.01l-5.42 5.44 5.77 6.05c.34.37.53.77.53 1.17 0 .4-.13.74-.41.98Z"/></svg>