<svg xmlns="http://www.w3.org/2000/svg" width="139" height="64" version="1.2" viewBox="0 0 139 64"><style>.a{fill:#231f20}</style><path d="M36.9 54.9v3.8l4.3 1.9 4.4-1.9v-3.8l-4.4 1.9zM4.9 54c-1.2 0-2.2-1-2.2-2.2 0-1.1 1-2.1 2.2-2.1.7 0 1.4.4 1.8 1l.9-2.4c-.7-.6-1.7-.9-2.7-.9-2.5 0-4.5 2-4.5 4.4 0 2.5 2 4.5 4.5 4.5 1 0 2-.4 2.7-1L6.7 53c-.4.6-1.1 1-1.8 1zM15.8 56.2h5.5v-1.9h-3.2v-1.5h3.1v-1.9h-3.1v-1.4h3.2v-2h-5.5z" class="a"/><path fill-rule="evenodd" d="m27.4 47.5 3.2 8.7h-2.4l-.5-1.5h-3.1l-.6 1.5h-2.4l3.3-8.7zm-.3 5.5-.9-2.8-.9 2.8z" class="a"/><path d="M30.9 56.2h2.3v-3.4h3v-1.9h-3v-1.4h3.2v-2h-5.5z" class="a"/><path fill-rule="evenodd" d="m62.5 47.5 1.3 8.7h-2.3l-.6-5-2.1 5h-.9l-2-5-.7 5h-4.5l-2.1-3.3v3.3h-2.3v-8.7h3.4c1.7 0 2.9.9 2.9 2.7 0 1.2-.6 2.2-1.8 2.5l2.2 2.9 1.4-8.1h2.2l1.8 4.7 1.8-4.7zm-12.1 2.8c0-.9-.8-1-1.6-1h-.2v2.1h.2c.8 0 1.6-.1 1.6-1.1zM12.9 52.7l2.7 3.5h-2.8l-2.1-3.3h-.1v3.3H8.4v-8.7h3.4c1.7 0 3 .9 3 2.7 0 1.2-.7 2.2-1.9 2.5zm-.5-2.4c0-.9-.8-1-1.5-1h-.3v2.1h.3c.7 0 1.5-.1 1.5-1.1z" class="a"/><path d="M41.2 47.4c-2.4 0-4.4 2-4.4 4.4 0 1.1.3 2 .9 2.8l2.4-.9c-.6-.4-1-1.1-1-1.9 0-1.1.9-2.1 2.1-2.1 1.2 0 2.2 1 2.2 2.1 0 .8-.4 1.5-1 1.9l2.3.9c.6-.8 1-1.7 1-2.8 0-2.4-2-4.4-4.5-4.4zM90.3 52.2l-1.7-3.9h-3.9v7.8l-4.9-8.6-1.8 3.1 1.7 2.8h-3.1l-1.5 2.7h3l1.6-2.7 1.5 2.7h6.3v-3.5l1.7 3.6h2.3l1.7-3.6v3.5h2.9v-7.8h-3.9zM96.9 56.1h7.3v-2.2h-4.3V53h4.3v-2.1h-4.3v-.5h4.3v-2.1h-7.3zM113.6 56.1h7.3v-2.2h-4.3V53h4.3v-2h-4.3v-.6h4.3v-2.1h-7.3zM104.7 50.4h2.7v5.7h2.9v-5.7h2.8v-2.1h-8.4zM129.9 48.3h-3.2l-2 2.1v-2.1h-3v7.8h3v-2.2l.3-.4 1.6 2.6h3.6l-3.2-4.7z" class="a"/><path fill-rule="evenodd" d="M131.1 50.5c-.6 0-1.1-.5-1.1-1.1 0-.7.5-1.1 1.1-1.1.6 0 1.1.4 1.1 1.1 0 .6-.5 1.1-1.1 1.1zm.9-1.1c0-.6-.4-1-.9-1s-.9.4-.9 1c0 .5.4.9.9.9s.9-.4.9-.9z" class="a"/><path fill-rule="evenodd" d="M131.6 49.9h-.2v-.3s0-.2-.2-.2h-.4v.5h-.1v-1.1h.5c.2 0 .4 0 .4.3 0 .2-.1.2-.2.3.1 0 .2 0 .2.2V49.9zm-.2-.8c0-.2-.1-.2-.2-.2h-.4v.4h.4c.1 0 .2 0 .2-.2z" class="a"/><path d="M72.9 47.5c-.1-.1-.2 0-.3.1l-4.5 8.3c-.1.1 0 .2.1.3h.1q.1 0 .2-.1l4.5-8.3c.1-.1 0-.2-.1-.3z" class="a"/><path fill-rule="evenodd" d="M5 29.9H.4V5.3h10.2q3.2 0 5.5 1 2.4 1.1 3.7 3 1.3 2 1.3 4.7t-1.3 4.7q-1.3 2-3.7 3-2.3 1.1-5.5 1.1H5zm0-11h5.3q3 0 4.6-1.3 1.5-1.2 1.5-3.6 0-2.3-1.5-3.6-1.6-1.3-4.6-1.3H5zM24.5 25.5q-1.3-2.2-1.3-5t1.3-5q1.3-2.2 3.5-3.4 2.2-1.2 5-1.2 2.7 0 4.9 1.2 2.1 1.2 3.4 3.4 1.2 2.2 1.2 5.1 0 .4-.1 1.3H27.6q.4 2.1 2.1 3.3 1.6 1.2 4 1.2 3.2 0 5.2-2l2.3 2.7q-1.3 1.5-3.2 2.3-1.9.7-4.4.7-3.1 0-5.4-1.2-2.4-1.2-3.7-3.4zm3.1-6.5h10.7q-.3-2.1-1.7-3.3-1.5-1.3-3.6-1.3t-3.6 1.3q-1.5 1.2-1.8 3.3zM62.8 15.5q1.3 2.2 1.3 5.1 0 .4-.1 1.3H49.2q.4 2.1 2 3.3 1.7 1.2 4.1 1.2 3.1 0 5.1-2l2.4 2.7q-1.3 1.5-3.2 2.3-2 .7-4.4.7-3.1 0-5.5-1.2-2.3-1.2-3.6-3.4-1.3-2.2-1.3-5t1.3-5q1.2-2.2 3.4-3.4 2.2-1.2 5-1.2t5 1.2q2.1 1.2 3.3 3.4zM59.9 19q-.3-2.1-1.8-3.3-1.4-1.3-3.6-1.3-2.1 0-3.5 1.3-1.5 1.2-1.8 3.3z" class="a"/><path d="M72.3 3.8v26.1h-4.4V3.8zM97.3 25.2q-1.4 1.1-3.8 1.1-2.1 0-4-.7-1.9-.6-3.2-1.8l-2 3.6q1.7 1.3 4.2 2.1 2.4.7 5.1.7 3.1 0 5.3-1 2.2-1 3.3-2.8 1.1-1.8 1.1-3.9 0-2.9-1.8-4.8t-5.2-2.3l6-7.1v-3H85.5v3.8h11.2l-5.6 6.6v3.2h2.2q2.8 0 4.1.9 1.3 1 1.3 2.7 0 1.8-1.4 2.7z" class="a"/><path fill-rule="evenodd" d="M116.8 29.9H106V5.3h10.8q3.9 0 7 1.5 3 1.5 4.7 4.3 1.7 2.8 1.7 6.5 0 3.6-1.7 6.4-1.7 2.8-4.7 4.3-3.1 1.6-7 1.6zm-.3-3.9q2.7 0 4.8-1 2.1-1.1 3.2-3t1.1-4.4q0-2.6-1.1-4.5t-3.2-2.9q-2.1-1.1-4.8-1.1h-6V26z" class="a"/><path d="M139 5.6h-.6l-1.3 2-1.3-2h-.6v3.2h.6v-2l1.2 1.6h.3l1-1.6.1 2h.6zM131.8 6.2h1.1v2.6h.7V6.2h1.1v-.6h-2.9z" class="a"/></svg>