<svg version="1.2" xmlns="http://www.w3.org/2000/svg" viewBox="0 0 656 276" width="656" height="276"><style>.a{fill:#fefefe}</style><path class="a" d="m184.4 254.7v17.3l19.8 8.6 19.7-8.6v-17.3l-19.7 8.6z"/><path class="a" d="m39.1 250.5c-5.4 0-9.8-4.4-9.8-9.8 0-5.4 4.4-9.8 9.8-9.8 3.5 0 6.6 1.8 8.3 4.6l4.2-10.7c-3.4-2.7-7.8-4.3-12.5-4.3-11.1 0-20.2 9-20.2 20.2 0 11.1 9.1 20.2 20.2 20.2 4.7 0 9.1-1.7 12.5-4.4l-4.2-10.7c-1.7 2.8-4.8 4.7-8.3 4.7z"/><path class="a" d="m88.9 260.5h24.9v-8.7h-14.7v-6.7h14v-8.7h-14v-6.5h14.7v-8.7h-24.9z"/><path fill-rule="evenodd" class="a" d="m141.3 221.2l14.8 39.3h-10.9l-2.5-6.8h-14.1l-2.7 6.8h-10.8l15.1-39.3zm-1.4 24.6l-4.2-12.4h-0.1l-4.2 12.4z"/><path class="a" d="m157.4 260.5h10.2v-15.4h13.7v-8.7h-13.7v-6.5h14.8v-8.7h-25z"/><path fill-rule="evenodd" class="a" d="m300.6 221.2l6 39.3h-10.2l-2.9-22.6h-0.1l-9.4 22.6h-4.1l-9-22.6h-0.1l-3.3 22.6h-20.4l-9.6-15.1h-0.1v15.1h-10.3v-39.3h15.3c7.8 0 13.6 3.7 13.6 12.1 0 5.4-3 10.1-8.5 11.1l10.3 13.5 6.2-36.7h10.1l7.9 21 8.5-21zm-55.2 12.7c0-4.2-3.8-4.9-7.1-4.9h-1v9.8h1c3.3 0 7.1-0.6 7.1-4.9z"/><path fill-rule="evenodd" class="a" d="m75.5 244.4l12.3 16.1h-12.7l-9.6-15.1h-0.2v15.1h-10.2v-39.3h15.3c7.8 0 13.6 3.7 13.6 12.1 0 5.4-3 10.1-8.5 11.1zm-2.1-10.5c0-4.2-3.7-4.9-7.1-4.9h-1v9.8h1c3.4 0 7.1-0.6 7.1-4.9z"/><path class="a" d="m204.2 220.5c-11.2 0-20.3 9-20.3 20.2 0 4.7 1.7 9 4.4 12.5l10.7-4.2c-2.8-1.7-4.6-4.8-4.6-8.3 0-5.4 4.4-9.8 9.8-9.8 5.4 0 9.8 4.4 9.8 9.8 0 3.5-1.9 6.6-4.7 8.3l10.7 4.2c2.7-3.5 4.4-7.8 4.4-12.5 0-11.2-9.1-20.2-20.2-20.2z"/><path class="a" d="m427.1 242.4l-8.1-17.8h-17.6v35.5l-22.3-38.9-7.9 13.8 7.4 12.9h-13.8l-7 12.3h13.7l7.2-12.3 7.1 12.4h15.6 13v-16.2l7.5 16.3h10.6l7.6-16.3v16.2h13v-35.7h-17.7z"/><path class="a" d="m457.1 260.2h32.8v-10h-19.6v-4.4h19.6v-9.2h-19.6v-2.5h19.6v-9.5h-32.8z"/><path class="a" d="m532.9 260.3h32.9v-10.1h-19.7v-4.4h19.7v-9.1h-19.7v-2.6h19.7v-9.5h-32.9z"/><path class="a" d="m492.2 234.1h12.5v26.1h13.1v-26.1h12.6v-9.6h-38.2z"/><path class="a" d="m606.5 224.5h-14.5l-9 9.8v-9.8h-13.7v35.7h13.7v-10l1.5-1.9 7.1 11.9h16.5l-14.6-21.4z"/><path fill-rule="evenodd" class="a" d="m617.2 229.4c0 2.8-2.3 5-5 5-2.8 0-5-2.2-5-5 0-2.7 2.2-5 5-5 2.7 0 5 2.3 5 5zm-0.9 0c0-2.3-1.8-4.2-4.1-4.2-2.3 0-4.2 1.9-4.2 4.2 0 2.3 1.9 4.2 4.2 4.2 2.3 0 4.1-1.9 4.1-4.2z"/><path fill-rule="evenodd" class="a" d="m614.6 232v0.1h-0.9c-0.1-0.3-0.1-1.2-0.1-1.4 0-0.4-0.1-0.9-1-0.9h-1.7v2.3h-0.7v-5.3h2.4c0.9 0 1.7 0.3 1.7 1.4 0 0.8-0.4 1.1-0.7 1.3 0.3 0.1 0.6 0.2 0.6 1l0.1 0.9c0 0.3 0 0.4 0.3 0.6zm-1-3.7c0-0.8-0.6-0.9-0.9-0.9h-1.8v1.8h1.6c0.6 0 1.1-0.1 1.1-0.9z"/><path class="a" d="m348.1 221c-0.5-0.3-1.1-0.1-1.4 0.4l-20.6 37.8c-0.2 0.4 0 1 0.4 1.3q0.3 0.1 0.5 0.1c0.4 0 0.7-0.2 0.9-0.5l20.6-37.8c0.2-0.4 0-1-0.4-1.3z"/><path fill-rule="evenodd" class="a" d="m90.3 33.7q10.8 4.8 16.5 13.7 5.8 9 5.8 21.3 0 12.2-5.8 21.2-5.7 9.1-16.5 13.9-10.8 4.8-25.4 4.8h-25.3v32.3h-20.8v-112h46.1q14.6 0 25.4 4.8zm-5.7 51.5q7-5.8 7-16.5 0-10.7-7-16.5-7.1-5.7-20.7-5.7h-24.3v44.5h24.3q13.6 0 20.7-5.8z"/><path fill-rule="evenodd" class="a" d="m209.5 104.6h-67q1.8 9.4 9.2 14.9 7.4 5.5 18.5 5.5 14.1 0 23.2-9.2l10.7 12.3q-5.8 6.9-14.6 10.4-8.8 3.5-19.8 3.5-14.1 0-24.8-5.6-10.7-5.6-16.6-15.6-5.8-10-5.8-22.6 0-12.5 5.7-22.5 5.7-10 15.7-15.6 10.1-5.6 22.8-5.6 12.4 0 22.3 5.5 9.8 5.5 15.3 15.5 5.6 10 5.6 23.1 0 2.1-0.4 6zm-59.1-28.4q-6.6 5.6-8.1 15.1h48.5q-1.3-9.3-7.8-15.1-6.6-5.7-16.3-5.7-9.6 0-16.3 5.7z"/><path fill-rule="evenodd" class="a" d="m307.5 104.6h-67.1q1.8 9.4 9.2 14.9 7.5 5.5 18.5 5.5 14.1 0 23.2-9.2l10.7 12.3q-5.7 6.9-14.5 10.4-8.8 3.5-19.9 3.5-14.1 0-24.8-5.6-10.7-5.6-16.5-15.6-5.9-10-5.9-22.6 0-12.5 5.7-22.5 5.7-10 15.8-15.6 10-5.6 22.7-5.6 12.5 0 22.3 5.5 9.8 5.5 15.4 15.5 5.5 10 5.5 23.1 0 2.1-0.3 6zm-59.2-28.4q-6.6 5.6-8 15.1h48.4q-1.2-9.3-7.8-15.1-6.6-5.7-16.3-5.7-9.6 0-16.3 5.7z"/><path class="a" d="m325.4 22.2h20v118.7h-20z"/><path class="a" d="m477.9 85.7q8.1 8.6 8.1 21.6 0 9.7-4.9 17.7-5 8-15 12.8-10 4.7-24.4 4.7-12 0-23.1-3.5-11.1-3.4-19-9.5l9-16.1q6.1 5.1 14.8 8 8.7 3 18 3 11 0 17.3-4.6 6.4-4.5 6.4-12.4 0-7.8-6-12.2-6-4.4-18.4-4.4h-10.2v-14.2l25.4-30.3h-50.8v-17.4h76.3v13.9l-27.2 32.3q15.5 1.9 23.7 10.6z"/><path fill-rule="evenodd" class="a" d="m498 28.9h49q17.9 0 31.8 6.9 13.9 7 21.6 19.7 7.7 12.7 7.7 29.4 0 16.6-7.7 29.3-7.7 12.8-21.6 19.7-13.9 7-31.8 7h-49zm48 94.4q12.3 0 21.7-4.7 9.4-4.8 14.4-13.5 5-8.7 5-20.2 0-11.5-5-20.3-5-8.7-14.4-13.4-9.4-4.7-21.7-4.7h-27.2v76.8z"/><path class="a" d="m615.3 30.4h13.4v2.6h-5.1v11.9h-3.2v-11.9h-5.1zm29.8 14.5l-0.1-9.2-4.9 7.6h-1.4l-5-7.4v9h-3v-14.5h2.6l6.1 9.3 6.1-9.3h2.6v14.5z"/></svg>